<?xml version="1.0" encoding="UTF-8"?>
<svg version="1.1" xmlns="http://www.w3.org/2000/svg" width="491" height="508">
<path d="M0 0 C6.64344313 1.40805153 13.32879418 3.6388467 19.625 6.1875 C21.2642631 9.4660262 20.67704017 13.08950057 20.625 16.6875 C20.62114159 19.12698261 20.62492992 21.5663788 20.62890625 24.00585938 C20.62569218 25.80091486 20.59751886 27.59590826 20.5625 29.390625 C20.65166583 33.0241324 20.91681128 35.26251882 23.15625 38.1875 C25.40938344 40.19028528 26.7100298 41.32705699 29.625 42.1875 C32.72179191 41.86343088 35.63756619 41.04520323 38.625 40.1875 C39.48303223 39.94451172 40.34106445 39.70152344 41.22509766 39.45117188 C43.88657631 38.67745775 46.53766661 37.87514149 49.1875 37.0625 C50.10080078 36.78535156 51.01410156 36.50820312 51.95507812 36.22265625 C54.17930717 35.54723591 56.40256953 34.86881033 58.625 34.1875 C69.96096913 46.3578425 69.96096913 46.3578425 72.625 52.1875 C72.1601161 55.72878012 70.55280299 57.92863741 68.4296875 60.7421875 C67.79675781 61.60457031 67.16382813 62.46695313 66.51171875 63.35546875 C65.17151775 65.15888485 63.82253958 66.95581154 62.46484375 68.74609375 C61.83449219 69.61105469 61.20414063 70.47601563 60.5546875 71.3671875 C59.67659424 72.53870361 59.67659424 72.53870361 58.78076172 73.73388672 C57.2633041 76.95535884 57.81213616 78.77763164 58.625 82.1875 C58.69589844 83.36570312 58.76679688 84.54390625 58.83984375 85.7578125 C61.04420993 89.99289676 62.29864715 90.20398456 66.69140625 91.8046875 C69.18117827 92.58631374 71.68055354 93.33784576 74.1875 94.0625 C75.47153488 94.45300462 76.75475276 94.84620651 78.03710938 95.2421875 C80.3752961 95.96201409 82.71754431 96.66885739 85.06469727 97.35888672 C87.625 98.1875 87.625 98.1875 88.625 99.1875 C88.71213831 100.89522358 88.73200007 102.60648649 88.72265625 104.31640625 C88.71943359 105.35087891 88.71621094 106.38535156 88.71289062 107.45117188 C88.70451172 108.53978516 88.69613281 109.62839844 88.6875 110.75 C88.68298828 111.84248047 88.67847656 112.93496094 88.67382812 114.06054688 C88.66199826 116.76958495 88.64551543 119.47851599 88.625 122.1875 C86.5422958 122.9392453 84.45879292 123.68877787 82.375 124.4375 C81.7461792 124.66783936 81.1173584 124.89817871 80.46948242 125.13549805 C77.36882853 126.25999666 74.31811635 127.27013571 71.12890625 128.12890625 C65.49557221 129.45366437 65.49557221 129.45366437 61.25 133.0390625 C60.43969787 135.1193574 59.97362244 136.98502644 59.625 139.1875 C59.39345215 139.96359619 59.1619043 140.73969238 58.92333984 141.53930664 C58.53371001 144.9978294 59.39902876 145.95361987 61.51953125 148.65625 C62.14537109 149.47480469 62.77121094 150.29335937 63.41601562 151.13671875 C64.08310547 151.97847656 64.75019531 152.82023438 65.4375 153.6875 C66.74053228 155.36081382 68.03888126 157.03778737 69.33203125 158.71875 C69.9144458 159.45673828 70.49686035 160.19472656 71.09692383 160.95507812 C72.7284575 163.33864482 73.82930584 165.40776281 74.625 168.1875 C73.3527332 170.64680998 72.16462252 172.52649908 70.5 174.6875 C70.09523438 175.24308594 69.69046875 175.79867187 69.2734375 176.37109375 C68.08155258 177.99465494 66.85358229 179.59152815 65.625 181.1875 C65.00882813 182.1671875 64.39265625 183.146875 63.7578125 184.15625 C61.625 186.1875 61.625 186.1875 58.51171875 186.1953125 C57.20612977 185.90069306 55.91071604 185.55938367 54.625 185.1875 C53.84205566 184.96288086 53.05911133 184.73826172 52.25244141 184.50683594 C48.73297318 183.44957769 45.23758722 182.3235872 41.74414062 181.18359375 C40.88626953 180.91417969 40.02839844 180.64476562 39.14453125 180.3671875 C37.98594604 179.99182861 37.98594604 179.99182861 36.80395508 179.60888672 C34.36161155 179.13656348 32.95192962 179.3585723 30.625 180.1875 C28.96741503 181.35005285 28.96741503 181.35005285 27.5 182.75 C24.625 185.1875 24.625 185.1875 22.625 185.1875 C22.625 195.0875 22.625 204.9875 22.625 215.1875 C5.25837772 223.08141922 5.25837772 223.08141922 -0.375 222.1875 C-2.25921193 220.22755608 -3.71023865 218.45313199 -5.25 216.25 C-5.68852295 215.66331543 -6.1270459 215.07663086 -6.57885742 214.47216797 C-8.5653901 211.80329975 -10.40442512 209.13858978 -12.12109375 206.28515625 C-14.44324209 202.61952059 -16.05787787 200.62773864 -20.23828125 199.23046875 C-24.41477607 198.93536313 -26.58629177 199.33120211 -30.375 201.1875 C-35.68431424 206.38095905 -39.56055191 212.86268864 -43.375 219.1875 C-43.99117188 220.20328125 -44.60734375 221.2190625 -45.2421875 222.265625 C-45.80292969 223.21695313 -45.80292969 223.21695313 -46.375 224.1875 C-51.75812708 223.49936563 -56.64452756 221.87933811 -61.75 220.125 C-64.59625 219.155625 -67.4425 218.18625 -70.375 217.1875 C-70.375 207.2875 -70.375 197.3875 -70.375 187.1875 C-72.025 186.5275 -73.675 185.8675 -75.375 185.1875 C-76.64150391 184.01767578 -76.64150391 184.01767578 -77.93359375 182.82421875 C-82.02793636 180.87696614 -82.84578114 181.26110601 -87.03515625 182.58203125 C-89.17916857 183.36131003 -91.31322312 184.16842799 -93.4375 185 C-95.57019559 185.80886537 -97.70681548 186.60747696 -99.84765625 187.39453125 C-101.25930054 187.94330933 -101.25930054 187.94330933 -102.69946289 188.50317383 C-105.66436554 189.26151146 -107.45956741 189.01571411 -110.375 188.1875 C-110.375 187.5275 -110.375 186.8675 -110.375 186.1875 C-111.365 185.8575 -112.355 185.5275 -113.375 185.1875 C-115.08015369 183.13435576 -116.60980547 181.12186562 -118.125 178.9375 C-118.76115234 178.07705078 -118.76115234 178.07705078 -119.41015625 177.19921875 C-121.14101292 174.72415009 -122.34814409 172.82687725 -122.4765625 169.76953125 C-120.8124764 165.86896065 -118.45941384 162.56502628 -116 159.125 C-115.505 158.41794922 -115.01 157.71089844 -114.5 156.98242188 C-110.62539909 151.46577753 -110.62539909 151.46577753 -108.4453125 149.04296875 C-107.1036424 147.14547697 -107.1036424 147.14547697 -107.703125 144.4609375 C-108.00734375 143.50445312 -108.3115625 142.54796875 -108.625 141.5625 C-109.06585938 140.12003906 -109.06585938 140.12003906 -109.515625 138.6484375 C-110.30357568 136.22423749 -110.30357568 136.22423749 -111.375 134.1875 C-113.66352889 133.2822464 -115.90826144 132.49057411 -118.25 131.75 C-118.92240723 131.53118164 -119.59481445 131.31236328 -120.28759766 131.08691406 C-125.2818959 129.48105327 -130.31287515 128.05576766 -135.3984375 126.765625 C-137.375 126.1875 -137.375 126.1875 -138.375 125.1875 C-140.98351444 106.92789893 -140.98351444 106.92789893 -137.375 101.1875 C-134.63691224 99.59516442 -131.73659503 98.59466724 -128.75 97.5625 C-127.96753906 97.27632813 -127.18507812 96.99015625 -126.37890625 96.6953125 C-120.14861652 94.4222383 -120.14861652 94.4222383 -117.09716797 93.49633789 C-113.73302529 92.41722266 -111.71270445 91.64539184 -109.5859375 88.76171875 C-107.93649937 83.06912603 -107.93649937 83.06912603 -109.15283203 77.38720703 C-111.75113111 72.96499924 -115.03281449 69.06142488 -118.375 65.1875 C-119.63847266 63.69883052 -120.89155484 62.20114231 -122.125 60.6875 C-122.61484375 60.1409375 -123.1046875 59.594375 -123.609375 59.03125 C-124.375 57.1875 -124.375 57.1875 -123.796875 54.359375 C-122.20131167 50.80004141 -120.26090662 48.02058713 -117.875 44.9375 C-117.0809375 43.90109375 -116.286875 42.8646875 -115.46875 41.796875 C-113.375 39.1875 -113.375 39.1875 -111.375 37.1875 C-109.40625 37.25390625 -109.40625 37.25390625 -106.875 37.75 C-105.89789063 37.935625 -104.92078125 38.12125 -103.9140625 38.3125 C-101.17215569 38.99041073 -98.61960087 39.76294554 -95.9609375 40.6875 C-95.18427734 40.94329834 -94.40761719 41.19909668 -93.60742188 41.46264648 C-92.06167734 41.97890851 -90.52770678 42.53219498 -89.00976562 43.12524414 C-85.50958814 44.27194755 -83.34492823 44.54153408 -79.83935547 43.26196289 C-76.96652291 41.48334073 -75.28073616 39.98915244 -73.375 37.1875 C-72.32759401 32.26261338 -72.52256359 27.51101735 -72.75 22.5 C-73.26648426 9.29737115 -73.26648426 9.29737115 -70.99169922 6.46533203 C-69.12678815 5.35697511 -67.46894234 4.73778611 -65.375 4.1875 C-63.93253906 3.66929688 -63.93253906 3.66929688 -62.4609375 3.140625 C-61.56632812 2.90859375 -60.67171875 2.6765625 -59.75 2.4375 C-58.85023438 2.19515625 -57.95046875 1.9528125 -57.0234375 1.703125 C-54.27702651 1.16842552 -52.15231458 0.78557968 -49.375 1.1875 C-47.41796875 2.98828125 -47.41796875 2.98828125 -45.5625 5.5 C-44.86769531 6.40105469 -44.17289062 7.30210938 -43.45703125 8.23046875 C-41.375 11.1875 -41.375 11.1875 -39.57421875 14.30078125 C-36.92209649 18.67933855 -35.01264967 21.55184638 -30.14453125 23.44140625 C-25.86224913 23.95976319 -23.39560676 23.80371307 -19.375 22.1875 C-15.15138235 18.2364147 -12.42659752 13.15458699 -9.58007812 8.18188477 C-4.79733262 0.26651848 -4.79733262 0.26651848 0 0 Z M-58.0625 73.4375 C-59.97202691 76.18169433 -60.85090878 78.65041737 -61.6875 81.875 C-62.88007006 85.83246712 -62.88007006 85.83246712 -65.01953125 87.3671875 C-66.37094637 87.96959345 -67.73381091 88.5467918 -69.10546875 89.1015625 C-73.46840748 91.18916485 -77.25192867 94.51772034 -80.375 98.1875 C-81.1765132 100.83158874 -81.1765132 100.83158874 -81.375 103.1875 C-82.035 103.1875 -82.695 103.1875 -83.375 103.1875 C-86.77632621 110.71502522 -87.43548452 120.01720819 -85.22265625 128.00390625 C-81.4574927 137.70310636 -75.25768902 145.12952861 -65.8125 149.625 C-61.34265285 151.29860995 -57.61309922 151.19038949 -52.875 150.9375 C-45.67866456 150.69834686 -42.73113584 152.42511541 -37.54296875 157.20703125 C-31.2280119 162.97582967 -23.39619124 162.83074853 -15.22265625 162.53125 C-6.5815223 161.75925022 -0.13516598 157.60101814 5.625 151.1875 C6.26976014 149.91560987 6.87740417 148.62387821 7.4375 147.3125 C9.625 144.1875 9.625 144.1875 11.95703125 143.703125 C13.86387535 143.60711607 15.77157414 143.52708543 17.6796875 143.4609375 C23.67655152 142.90419946 28.54422236 140.31451715 32.734375 136.03125 C39.43032852 127.73048117 40.57454003 120.78869374 39.625 110.1875 C37.94926431 103.90599974 33.59261838 99.21741064 28.625 95.1875 C25.56128856 93.58601447 24.07515208 93.1875 20.625 93.1875 C20.45484375 92.59582031 20.2846875 92.00414062 20.109375 91.39453125 C17.70495584 83.55459006 14.59928956 79.50756934 7.625 75.203125 C3.38401786 73.04950126 -0.40058228 73.07775582 -5.125 73.125 C-6.88070312 73.13853516 -6.88070312 73.13853516 -8.671875 73.15234375 C-9.56390625 73.16394531 -10.4559375 73.17554688 -11.375 73.1875 C-11.60703125 72.59195313 -11.8390625 71.99640625 -12.078125 71.3828125 C-14.9696752 66.48807993 -21.39974153 64.07435074 -26.4375 61.8125 C-38.87577711 59.16605806 -50.25596085 63.46631577 -58.0625 73.4375 Z " fill="#0282C4" transform="translate(271.375,104.8125)"/>
<path d="M0 0 C1 3 1 3 0 6.3125 C-2.18610063 14.5711024 -1.27888198 23.33847188 2.5625 30.9375 C7.13773314 38.32742525 12.93370293 43.32995348 21.09765625 46.38671875 C24.67060774 47.14170312 27.85738626 46.94441946 31.5 46.75 C38.69633544 46.51084686 41.64386416 48.23761541 46.83203125 53.01953125 C53.1469881 58.78832967 60.97880876 58.64324853 69.15234375 58.34375 C77.7934777 57.57175022 84.23983402 53.41351814 90 47 C90.64476014 45.72810987 91.25240417 44.43637821 91.8125 43.125 C94 40 94 40 96.3671875 39.48046875 C98.27431412 39.36688642 100.18380297 39.2883959 102.09375 39.2421875 C106.53240175 38.87229985 110.10809358 37.06607378 114 35 C113.6875 36.9375 113.6875 36.9375 113 39 C112.01 39.33 111.02 39.66 110 40 C108.89163577 41.88316159 108.89163577 41.88316159 108 44 C107.34 44.99 106.68 45.98 106 47 C105.34 47 104.68 47 104 47 C103.75378906 47.56460938 103.50757813 48.12921875 103.25390625 48.7109375 C101.78593095 51.39079272 100.0064331 53.37958803 97.9375 55.625 C95.14219542 58.58789167 95.14219542 58.58789167 93 62 C92.34 62 91.68 62 91 62 C90.73316406 62.58523438 90.46632813 63.17046875 90.19140625 63.7734375 C88.98062783 66.03620373 87.6463301 67.71883571 85.9375 69.625 C84.33621517 71.4181258 83.07671842 72.84656316 82 75 C81.34 75 80.68 75 80 75 C80 75.66 80 76.32 80 77 C79.34 77 78.68 77 78 77 C77.505 78.485 77.505 78.485 77 80 C76.34 80 75.68 80 75 80 C74.505 81.98 74.505 81.98 74 84 C73.34 84 72.68 84 72 84 C71.7525 84.53625 71.505 85.0725 71.25 85.625 C69.70303025 88.56424252 67.86985631 91.25754408 66 94 C67.485 94.495 67.485 94.495 69 95 C69 95.66 69 96.32 69 97 C70.32 96.67 71.64 96.34 73 96 C73.12117188 96.63808594 73.24234375 97.27617187 73.3671875 97.93359375 C73.53476562 98.75988281 73.70234375 99.58617187 73.875 100.4375 C74.03742188 101.26121094 74.19984375 102.08492188 74.3671875 102.93359375 C74.68042969 103.95646484 74.68042969 103.95646484 75 105 C75.66 105.33 76.32 105.66 77 106 C76.01 106 75.02 106 74 106 C72.98690122 104.51508665 72.03765494 102.98617613 71.125 101.4375 C68.90573277 98.53753316 67.58008931 97.20224735 64.109375 95.9921875 C59.96389277 95.76188293 57.75918336 96.15816798 54 98 C48.69068576 103.19345905 44.81444809 109.67518864 41 116 C40.38382812 117.01578125 39.76765625 118.0315625 39.1328125 119.078125 C38.57207031 120.02945313 38.57207031 120.02945313 38 121 C32.61687292 120.31186563 27.73047244 118.69183811 22.625 116.9375 C19.77875 115.968125 16.9325 114.99875 14 114 C14 104.1 14 94.2 14 84 C12.35 83.34 10.7 82.68 9 82 C8.15566406 81.22011719 7.31132812 80.44023437 6.44140625 79.63671875 C2.34706364 77.68946614 1.52921886 78.07360601 -2.66015625 79.39453125 C-4.80416857 80.17381003 -6.93822312 80.98092799 -9.0625 81.8125 C-11.19519559 82.62136537 -13.33181548 83.41997696 -15.47265625 84.20703125 C-16.41375244 84.5728833 -17.35484863 84.93873535 -18.32446289 85.31567383 C-21.28936554 86.07401146 -23.08456741 85.82821411 -26 85 C-26 84.34 -26 83.68 -26 83 C-26.99 82.67 -27.98 82.34 -29 82 C-30.70515369 79.94685576 -32.23480547 77.93436562 -33.75 75.75 C-34.17410156 75.17636719 -34.59820312 74.60273438 -35.03515625 74.01171875 C-36.76601292 71.53665009 -37.97314409 69.63937725 -38.1015625 66.58203125 C-36.4374764 62.68146065 -34.08441384 59.37752628 -31.625 55.9375 C-31.13 55.23044922 -30.635 54.52339844 -30.125 53.79492188 C-29.64289063 53.10849609 -29.16078125 52.42207031 -28.6640625 51.71484375 C-28.20265869 51.05774414 -27.74125488 50.40064453 -27.26586914 49.72363281 C-26 48 -26 48 -24.09765625 45.91796875 C-22.40659926 42.96313251 -23.24707578 40.6654042 -23.8125 37.375 C-24.21484424 33.24883141 -24.44015351 30.84343553 -22.5078125 27.140625 C-20.44485662 24.63393899 -18.26655831 22.32272081 -16 20 C-14.85106682 18.49716549 -13.72350129 16.97758245 -12.625 15.4375 C-10.2327044 12.1163522 -10.2327044 12.1163522 -8 11 C-7.690625 10.38125 -7.38125 9.7625 -7.0625 9.125 C-5.95050192 6.90100384 -4.77979434 5.70860257 -3 4 C-1.98199424 2.68036291 -0.97751635 1.34990354 0 0 Z " fill="#0274A4" transform="translate(187,208)"/>
<path d="M0 0 C3.36346127 3.04313163 5.45645607 6.42172523 7.625 10.375 C8.285 10.230625 8.945 10.08625 9.625 9.9375 C10.615 9.751875 11.605 9.56625 12.625 9.375 C13.90375 9.1275 15.1825 8.88 16.5 8.625 C20.91643886 8.11765015 23.75145666 9.10934258 27.625 11.375 C32.76578103 16.05882272 33.72780761 20.59918879 34.625 27.375 C35.82125 27.4575 37.0175 27.54 38.25 27.625 C42.59353103 28.19288215 45.25708774 29.4663485 48.625 32.375 C51.96138037 37.063967 54.06883425 41.518553 53.625 47.375 C51.90633436 53.74794029 49.03583551 57.69102689 43.625 61.375 C37.53712295 63.40429235 31.53232295 62.79851711 25.625 60.375 C25.49544922 61.37080078 25.49544922 61.37080078 25.36328125 62.38671875 C24.42178976 68.30343135 23.48269391 71.5109253 18.625 75.375 C17.56232277 76.2914612 16.49982365 77.20812897 15.4375 78.125 C9.58090509 82.81027593 2.80112385 82.02062852 -4.375 81.375 C-10.06079837 79.43922437 -13.46937693 75.51440319 -16.7578125 70.6328125 C-18.40445886 69.05406713 -18.40445886 69.05406713 -21.16796875 69.65234375 C-22.75544922 70.01005859 -22.75544922 70.01005859 -24.375 70.375 C-33.71318209 71.32200435 -40.91284057 70.39602225 -48.375 64.375 C-55.12664692 56.42483588 -56.16226414 49.39514981 -55.59716797 39.265625 C-54.84469092 32.862128 -50.00986246 28.48090477 -45.2109375 24.625 C-41.53655657 22.12329383 -37.57855183 20.77618394 -33.375 19.375 C-33.27703125 18.72273438 -33.1790625 18.07046875 -33.078125 17.3984375 C-31.91223622 10.58401857 -30.18834234 6.11019394 -25.125 1.1875 C-16.58249264 -4.44278894 -9.30654396 -4.48092858 0 0 Z " fill="#0182C5" transform="translate(249.375,177.625)"/>
<path d="M0 0 C1.29744141 -0.0309375 1.29744141 -0.0309375 2.62109375 -0.0625 C9.58246556 -0.10424736 16.16898926 0.78383789 21.8125 5.125 C25.5434655 10.19911308 25.47462957 13.8531655 24.76171875 19.9453125 C23.93927838 24.84672483 21.92076771 26.88606653 18.375 30.25 C19.0246875 31.08144531 19.674375 31.91289062 20.34375 32.76953125 C21.18787761 33.86689714 22.03160698 34.96456944 22.875 36.0625 C23.51888672 36.88331055 23.51888672 36.88331055 24.17578125 37.72070312 C27.375 41.91015625 27.375 41.91015625 27.375 45.25 C22.83775788 46.00737581 18.88388528 46.26878616 14.375 45.25 C10.48579561 41.72110337 7.86604599 37.89737778 5.375 33.25 C5.375 32.59 5.375 31.93 5.375 31.25 C3.725 31.25 2.075 31.25 0.375 31.25 C0.38660156 32.17683594 0.39820312 33.10367188 0.41015625 34.05859375 C0.41917969 35.25613281 0.42820312 36.45367187 0.4375 37.6875 C0.44910156 38.88246094 0.46070312 40.07742188 0.47265625 41.30859375 C0.375 44.25 0.375 44.25 -0.625 45.25 C-2.28929051 45.34823937 -3.95781931 45.37973631 -5.625 45.375 C-6.98625 45.37886719 -6.98625 45.37886719 -8.375 45.3828125 C-10.625 45.25 -10.625 45.25 -11.625 44.25 C-11.74685143 42.90016252 -11.80266831 41.54425299 -11.83032227 40.18920898 C-11.8602401 38.89798378 -11.8602401 38.89798378 -11.89076233 37.58067322 C-11.90747482 36.64526199 -11.92418732 35.70985077 -11.94140625 34.74609375 C-11.96218735 33.79307877 -11.98296844 32.84006378 -12.00437927 31.85816956 C-12.06998177 28.8013559 -12.12880918 25.74445344 -12.1875 22.6875 C-12.23067506 20.62043337 -12.27428901 18.55337586 -12.31835938 16.48632812 C-12.42567401 11.40764405 -12.52691091 6.3288703 -12.625 1.25 C-8.41214601 -0.15428466 -4.41358505 0.02562314 0 0 Z M0.375 11.25 C0.375 14.55 0.375 17.85 0.375 21.25 C1.963125 21.3325 3.55125 21.415 5.1875 21.5 C6.52748047 21.56960938 6.52748047 21.56960938 7.89453125 21.640625 C10.50898539 21.47895083 10.50898539 21.47895083 12.21484375 19.40234375 C13.62619111 17.25977793 13.62619111 17.25977793 13.125 14.5625 C12.58879042 12.31230031 12.58879042 12.31230031 11.375 11.25 C9.52212498 11.17773498 7.66666122 11.1661878 5.8125 11.1875 C4.80058594 11.19652344 3.78867188 11.20554687 2.74609375 11.21484375 C1.96363281 11.22644531 1.18117188 11.23804688 0.375 11.25 Z " fill="#0282C4" transform="translate(120.625,358.75)"/>
<path d="M0 0 C1.29164063 -0.00128906 2.58328125 -0.00257813 3.9140625 -0.00390625 C4.92919922 -0.00076416 4.92919922 -0.00076416 5.96484375 0.00244141 C8.02351314 0.00777224 10.0819626 0.00250549 12.140625 -0.00390625 C13.43484375 -0.00261719 14.7290625 -0.00132812 16.0625 0 C17.85179932 0.00169189 17.85179932 0.00169189 19.67724609 0.00341797 C22.6640625 0.1328125 22.6640625 0.1328125 25.6640625 1.1328125 C25.69095466 2.61188142 25.71040871 4.09108733 25.7265625 5.5703125 C25.73816406 6.39402344 25.74976563 7.21773438 25.76171875 8.06640625 C25.6640625 10.1328125 25.6640625 10.1328125 24.6640625 11.1328125 C23.1753439 11.21950682 21.6826175 11.23984744 20.19140625 11.23046875 C19.29228516 11.22724609 18.39316406 11.22402344 17.46679688 11.22070312 C16.52126953 11.21232422 15.57574219 11.20394531 14.6015625 11.1953125 C13.65216797 11.19080078 12.70277344 11.18628906 11.72460938 11.18164062 C9.37103185 11.1698136 7.01757773 11.15333275 4.6640625 11.1328125 C4.6640625 13.4428125 4.6640625 15.7528125 4.6640625 18.1328125 C5.95183594 18.12121094 7.23960937 18.10960937 8.56640625 18.09765625 C10.24479022 18.0882798 11.92317576 18.07917945 13.6015625 18.0703125 C14.87676758 18.05774414 14.87676758 18.05774414 16.17773438 18.04492188 C16.98662109 18.04169922 17.79550781 18.03847656 18.62890625 18.03515625 C19.377771 18.02991943 20.12663574 18.02468262 20.89819336 18.01928711 C22.6640625 18.1328125 22.6640625 18.1328125 23.6640625 19.1328125 C23.80521411 21.80340101 23.70653357 24.45713488 23.6640625 27.1328125 C20.3357894 28.79694905 16.66672277 27.95148656 13.0390625 27.6953125 C12.23726562 27.64310547 11.43546875 27.59089844 10.609375 27.53710938 C8.62727147 27.40732879 6.64561751 27.27071515 4.6640625 27.1328125 C4.6640625 29.4428125 4.6640625 31.7528125 4.6640625 34.1328125 C11.5940625 34.1328125 18.5240625 34.1328125 25.6640625 34.1328125 C25.6640625 37.7628125 25.6640625 41.3928125 25.6640625 45.1328125 C21.2858113 45.15750331 16.90759683 45.17566807 12.52929688 45.18774414 C11.03938084 45.19277764 9.54946976 45.19960492 8.05957031 45.20825195 C5.91990946 45.22036055 3.78031382 45.22605057 1.640625 45.23046875 C0.35236816 45.23570557 -0.93588867 45.24094238 -2.26318359 45.24633789 C-5.3359375 45.1328125 -5.3359375 45.1328125 -7.3359375 44.1328125 C-7.36058263 38.0272654 -7.37877121 31.92174699 -7.39086914 25.81616211 C-7.39591038 23.73738094 -7.40274324 21.65860334 -7.41137695 19.57983398 C-7.42345172 16.59878664 -7.42916774 13.61778601 -7.43359375 10.63671875 C-7.44133568 9.23360191 -7.44133568 9.23360191 -7.44923401 7.80213928 C-7.44930954 6.94132248 -7.44938507 6.08050568 -7.44946289 5.19360352 C-7.4516835 4.43193375 -7.45390411 3.67026398 -7.45619202 2.88551331 C-7.17198494 -1.25678407 -3.3160426 0.00314147 0 0 Z " fill="#0B8FC5" transform="translate(160.3359375,358.8671875)"/>
<path d="M0 0 C0.886875 -0.01417969 1.77375 -0.02835937 2.6875 -0.04296875 C5 0.1875 5 0.1875 7 2.1875 C7.8609589 4.37739546 8.6624198 6.59075676 9.4375 8.8125 C12.55172443 17.53747589 16.45918068 25.85981121 20.48022461 34.19970703 C20.94952393 35.19212402 21.41882324 36.18454102 21.90234375 37.20703125 C22.33023193 38.09495361 22.75812012 38.98287598 23.19897461 39.89770508 C24 42.1875 24 42.1875 23 45.1875 C21.37509046 45.21448189 19.75005367 45.23388757 18.125 45.25 C17.22007812 45.26160156 16.31515625 45.27320313 15.3828125 45.28515625 C13 45.1875 13 45.1875 11 44.1875 C9.78863751 41.24800111 8.94214447 38.22805716 8 35.1875 C0.08 35.6825 0.08 35.6825 -8 36.1875 C-8.45375 37.486875 -8.9075 38.78625 -9.375 40.125 C-10.75 44.0625 -10.75 44.0625 -13 45.1875 C-14.49756871 45.28249503 -15.99942932 45.31737198 -17.5 45.3125 C-18.2940625 45.31507813 -19.088125 45.31765625 -19.90625 45.3203125 C-22 45.1875 -22 45.1875 -24 44.1875 C-22.03544179 37.74811477 -19.48907038 31.82468553 -16.62109375 25.73828125 C-13.36552906 18.60741788 -10.27325738 11.29708072 -7.953125 3.80859375 C-6.41015248 -0.43458068 -4.13269548 0.03003412 0 0 Z M-1 17.1875 C-2.485 21.1475 -2.485 21.1475 -4 25.1875 C-1.69 25.1875 0.62 25.1875 3 25.1875 C2.40138258 22.83578869 1.73075648 20.5015622 1 18.1875 C0.34 17.8575 -0.32 17.5275 -1 17.1875 Z " fill="#0382C4" transform="translate(303,358.8125)"/>
<path d="M0 0 C1.23266602 -0.0309375 1.23266602 -0.0309375 2.49023438 -0.0625 C9.78180766 -0.10839503 16.18317594 1.0121117 21.9375 5.6875 C25.74578897 10.56687024 25.44850356 16.26936571 24.9375 22.25 C23.1934241 27.4822277 20.6964164 29.57310953 15.9375 32.25 C11.03681037 33.88356321 6.08011524 33.30529694 0.9375 33.25 C0.9375 37.21 0.9375 41.17 0.9375 45.25 C-0.67125 45.29125 -2.28 45.3325 -3.9375 45.375 C-4.84242188 45.39820313 -5.74734375 45.42140625 -6.6796875 45.4453125 C-9.0625 45.25 -9.0625 45.25 -11.0625 43.25 C-11.30300903 41.41500854 -11.30300903 41.41500854 -11.28955078 39.16748047 C-11.28939972 38.32675995 -11.28924866 37.48603943 -11.28909302 36.61984253 C-11.27877045 35.71146637 -11.26844788 34.80309021 -11.2578125 33.8671875 C-11.2549826 32.93778351 -11.25215271 32.00837952 -11.24923706 31.05081177 C-11.23802069 28.0754115 -11.2129136 25.10030965 -11.1875 22.125 C-11.17747208 20.11068142 -11.1683459 18.09635814 -11.16015625 16.08203125 C-11.13807661 11.13790544 -11.10353693 6.19400335 -11.0625 1.25 C-7.62416484 -0.46916758 -3.78907765 0.02301642 0 0 Z M0.9375 11.25 C0.9375 15.21 0.9375 19.17 0.9375 23.25 C2.8246875 23.2809375 2.8246875 23.2809375 4.75 23.3125 C5.45769531 23.32410156 6.16539062 23.33570313 6.89453125 23.34765625 C9.14055461 23.33263217 9.14055461 23.33263217 11.9375 22.25 C14.09252531 19.01746204 14.40606135 17.99849077 13.9375 14.25 C12.79195106 12.5046741 12.79195106 12.5046741 10.9375 11.25 C8.42460325 10.88786432 8.42460325 10.88786432 5.75 11.0625 C4.161875 11.124375 2.57375 11.18625 0.9375 11.25 Z " fill="#0581C2" transform="translate(340.0625,358.75)"/>
<path d="M0 0 C1.71484375 1.23046875 1.71484375 1.23046875 2.60546875 3.19921875 C2.71484375 5.23046875 2.71484375 5.23046875 0.40234375 7.91796875 C-2.28515625 10.23046875 -2.28515625 10.23046875 -4.28515625 11.23046875 C-5.15140625 10.77671875 -6.01765625 10.32296875 -6.91015625 9.85546875 C-10.89470559 7.93698203 -13.90753935 7.60784952 -18.28515625 7.23046875 C-18.28515625 8.55046875 -18.28515625 9.87046875 -18.28515625 11.23046875 C-17.34414062 11.53339844 -16.403125 11.83632813 -15.43359375 12.1484375 C-2.02493031 16.65963379 -2.02493031 16.65963379 1.71484375 21.23046875 C3.2859919 25.14405595 3.93768749 28.6705626 3.33984375 32.85546875 C-0.13096835 37.92819413 -3.30353395 41.66743081 -9.57421875 42.8515625 C-17.52362409 43.13732544 -23.69091344 41.72654339 -30.28515625 37.23046875 C-30.94515625 36.57046875 -31.60515625 35.91046875 -32.28515625 35.23046875 C-32.17195322 31.94758099 -31.00230762 30.92692388 -28.72265625 28.48046875 C-27.91828125 27.73796875 -27.11390625 26.99546875 -26.28515625 26.23046875 C-25.76953125 26.49859375 -25.25390625 26.76671875 -24.72265625 27.04296875 C-17.35865005 30.652287 -17.35865005 30.652287 -9.28515625 31.23046875 C-9.22112777 29.29465065 -9.22112777 29.29465065 -10.28515625 27.23046875 C-12.72412918 26.06749507 -14.99098984 25.14821113 -17.53515625 24.29296875 C-22.87021914 22.48891569 -26.72318294 20.86171512 -30.28515625 16.23046875 C-30.84375 13.4765625 -30.84375 13.4765625 -30.72265625 10.66796875 C-30.70074219 9.73855469 -30.67882812 8.80914062 -30.65625 7.8515625 C-30.17148781 4.42761058 -29.48045508 2.15785578 -26.69921875 0 C-25.81363281 -0.47373047 -25.81363281 -0.47373047 -24.91015625 -0.95703125 C-24.32492188 -1.28058594 -23.7396875 -1.60414063 -23.13671875 -1.9375 C-15.40716973 -5.41090494 -7.45673356 -3.21072008 0 0 Z " fill="#0982C1" transform="translate(222.28515625,361.76953125)"/>
<path d="M0 0 C0.70726227 0.00202423 1.41452454 0.00404846 2.14321899 0.00613403 C3.22912827 0.00469894 3.22912827 0.00469894 4.3369751 0.00323486 C5.87199999 0.00255301 7.40702774 0.00440768 8.94204712 0.00857544 C11.29042065 0.01390824 13.63860157 0.0086387 15.98696899 0.00222778 C17.47655275 0.00288887 18.96613639 0.00417066 20.45571899 0.00613403 C21.1589328 0.0041098 21.86214661 0.00208557 22.58666992 0 C25.64665918 0.0146761 28.00504836 0.16320216 30.93228149 1.13894653 C30.79178632 2.61862977 30.64473323 4.0976917 30.49478149 5.57644653 C30.41357056 6.40015747 30.33235962 7.22386841 30.24868774 8.07254028 C29.93228149 10.13894653 29.93228149 10.13894653 28.93228149 11.13894653 C25.30228149 11.13894653 21.67228149 11.13894653 17.93228149 11.13894653 C17.93228149 22.35894653 17.93228149 33.57894653 17.93228149 45.13894653 C14.30228149 45.13894653 10.67228149 45.13894653 6.93228149 45.13894653 C5.93228149 44.13894653 5.93228149 44.13894653 5.8187561 40.99612427 C5.81891517 39.60491956 5.82460643 38.21370893 5.83462524 36.82254028 C5.83604019 36.09148575 5.83745514 35.36043121 5.83891296 34.60722351 C5.84452741 32.26359021 5.85708228 29.92005114 5.86978149 27.57644653 C5.87479464 25.99116145 5.87935787 24.40587488 5.88345337 22.82058716 C5.89450153 18.92667043 5.91177578 15.03282448 5.93228149 11.13894653 C5.14982056 11.1505481 4.36735962 11.16214966 3.56118774 11.17410278 C2.54927368 11.18312622 1.53735962 11.19214966 0.49478149 11.20144653 C-0.51455444 11.2130481 -1.52389038 11.22464966 -2.56381226 11.23660278 C-5.06771851 11.13894653 -5.06771851 11.13894653 -6.06771851 10.13894653 C-6.1656242 8.64156529 -6.19746715 7.13951761 -6.19271851 5.63894653 C-6.19529663 4.82425903 -6.19787476 4.00957153 -6.20053101 3.17019653 C-5.93567237 -0.88058255 -3.48269487 0.01686522 0 0 Z " fill="#0684C3" transform="translate(234.06771850585938,358.8610534667969)"/>
<path d="M0 0 C1.29744141 -0.0309375 1.29744141 -0.0309375 2.62109375 -0.0625 C9.58246556 -0.10424736 16.16898926 0.78383789 21.8125 5.125 C25.5434655 10.19911308 25.47462957 13.8531655 24.76171875 19.9453125 C23.93927838 24.84672483 21.92076771 26.88606653 18.375 30.25 C19.0246875 31.08144531 19.674375 31.91289062 20.34375 32.76953125 C21.18787761 33.86689714 22.03160698 34.96456944 22.875 36.0625 C23.51888672 36.88331055 23.51888672 36.88331055 24.17578125 37.72070312 C27.375 41.91015625 27.375 41.91015625 27.375 45.25 C22.83775788 46.00737581 18.88388528 46.26878616 14.375 45.25 C10.48579561 41.72110337 7.86604599 37.89737778 5.375 33.25 C5.375 32.59 5.375 31.93 5.375 31.25 C3.725 31.25 2.075 31.25 0.375 31.25 C0.38660156 32.17683594 0.39820312 33.10367188 0.41015625 34.05859375 C0.41917969 35.25613281 0.42820312 36.45367187 0.4375 37.6875 C0.44910156 38.88246094 0.46070312 40.07742188 0.47265625 41.30859375 C0.375 44.25 0.375 44.25 -0.625 45.25 C-2.28929051 45.34823937 -3.95781931 45.37973631 -5.625 45.375 C-6.98625 45.37886719 -6.98625 45.37886719 -8.375 45.3828125 C-10.625 45.25 -10.625 45.25 -11.625 44.25 C-11.74685143 42.90016252 -11.80266831 41.54425299 -11.83032227 40.18920898 C-11.8602401 38.89798378 -11.8602401 38.89798378 -11.89076233 37.58067322 C-11.90747482 36.64526199 -11.92418732 35.70985077 -11.94140625 34.74609375 C-11.96218735 33.79307877 -11.98296844 32.84006378 -12.00437927 31.85816956 C-12.06998177 28.8013559 -12.12880918 25.74445344 -12.1875 22.6875 C-12.23067506 20.62043337 -12.27428901 18.55337586 -12.31835938 16.48632812 C-12.42567401 11.40764405 -12.52691091 6.3288703 -12.625 1.25 C-8.41214601 -0.15428466 -4.41358505 0.02562314 0 0 Z M-9.625 2.25 C-9.625 15.45 -9.625 28.65 -9.625 42.25 C-8.965 42.25 -8.305 42.25 -7.625 42.25 C-7.625 42.91 -7.625 43.57 -7.625 44.25 C-5.645 44.25 -3.665 44.25 -1.625 44.25 C-1.625 39.63 -1.625 35.01 -1.625 30.25 C5.52449693 30.49235583 5.52449693 30.49235583 7.94921875 32.65234375 C9.12797042 34.15675654 10.25480358 35.70149319 11.375 37.25 C12.035 37.25 12.695 37.25 13.375 37.25 C13.375 36.59 13.375 35.93 13.375 35.25 C14.365 35.25 15.355 35.25 16.375 35.25 C16.354375 34.13625 16.33375 33.0225 16.3125 31.875 C16.375 28.25 16.375 28.25 17.375 26.25 C16.715 25.26 16.055 24.27 15.375 23.25 C14.715 23.25 14.055 23.25 13.375 23.25 C13.045 22.59 12.715 21.93 12.375 21.25 C12.045 21.58 11.715 21.91 11.375 22.25 C7.3596293 22.07141106 3.37758168 21.62919195 -0.625 21.25 C-0.955 17.29 -1.285 13.33 -1.625 9.25 C-0.965 9.58 -0.305 9.91 0.375 10.25 C2.18343663 10.39716542 3.99831566 10.4710887 5.8125 10.5 C6.78058594 10.52578125 7.74867188 10.5515625 8.74609375 10.578125 C11.40465714 10.46779158 11.40465714 10.46779158 13.22265625 8.859375 C14.56905707 7.30887623 14.56905707 7.30887623 14.375 5.25 C15.035 5.25 15.695 5.25 16.375 5.25 C16.375 4.59 16.375 3.93 16.375 3.25 C13.76548764 1.94524382 11.84798715 2.13698428 8.9296875 2.15234375 C7.96015137 2.15484131 6.99061523 2.15733887 5.99169922 2.15991211 C4.75693848 2.16901611 3.52217773 2.17812012 2.25 2.1875 C-1.66875 2.208125 -5.5875 2.22875 -9.625 2.25 Z M0.375 11.25 C0.375 14.55 0.375 17.85 0.375 21.25 C1.963125 21.3325 3.55125 21.415 5.1875 21.5 C6.52748047 21.56960938 6.52748047 21.56960938 7.89453125 21.640625 C10.50898539 21.47895083 10.50898539 21.47895083 12.21484375 19.40234375 C13.62619111 17.25977793 13.62619111 17.25977793 13.125 14.5625 C12.58879042 12.31230031 12.58879042 12.31230031 11.375 11.25 C9.52212498 11.17773498 7.66666122 11.1661878 5.8125 11.1875 C4.80058594 11.19652344 3.78867188 11.20554687 2.74609375 11.21484375 C1.96363281 11.22644531 1.18117188 11.23804688 0.375 11.25 Z " fill="#0583C4" transform="translate(120.625,358.75)"/>
<path d="M0 0 C0.66 0.33 1.32 0.66 2 1 C2.02464513 7.1055471 2.04283371 13.21106551 2.05493164 19.31665039 C2.05997288 21.39543156 2.06680574 23.47420916 2.07543945 25.55297852 C2.08751422 28.53402586 2.09323024 31.51502649 2.09765625 34.49609375 C2.10281754 35.43150497 2.10797882 36.3669162 2.11329651 37.33067322 C2.11337204 38.19149002 2.11344757 39.05230682 2.11352539 39.93920898 C2.115746 40.70087875 2.11796661 41.46254852 2.12025452 42.24729919 C2 44 2 44 1 45 C-0.66429051 45.09823937 -2.33281931 45.12973631 -4 45.125 C-5.36125 45.12886719 -5.36125 45.12886719 -6.75 45.1328125 C-9 45 -9 45 -10 44 C-10.09268999 42.64905018 -10.11747326 41.29332909 -10.11352539 39.93920898 C-10.11344986 39.07839218 -10.11337433 38.21757538 -10.11329651 37.33067322 C-10.10813522 36.39526199 -10.10297394 35.45985077 -10.09765625 34.49609375 C-10.0962413 33.54307877 -10.09482635 32.59006378 -10.09336853 31.60816956 C-10.08775152 28.55124835 -10.07519616 25.49439923 -10.0625 22.4375 C-10.05748719 20.37044376 -10.05292391 18.30338638 -10.04882812 16.23632812 C-10.03777656 11.15752412 -10.02050055 6.0787743 -10 1 C-6.49852959 -0.1671568 -3.67329964 -0.13357453 0 0 Z " fill="#0485C7" transform="translate(380,359)"/>
<path d="M0 0 C0.99 0.495 0.99 0.495 2 1 C2.33 11.23 2.66 21.46 3 32 C4.32 32 5.64 32 7 32 C7 31.34 7 30.68 7 30 C7.99 30 8.98 30 10 30 C10 28.35 10 26.7 10 25 C16.6 25 23.2 25 30 25 C30 22.69 30 20.38 30 18 C30.33 18 30.66 18 31 18 C31 20.64 31 23.28 31 26 C27.6717269 27.66413655 24.00266027 26.81867406 20.375 26.5625 C19.57320312 26.51029297 18.77140625 26.45808594 17.9453125 26.40429688 C15.96320897 26.27451629 13.98155501 26.13790265 12 26 C12 28.31 12 30.62 12 33 C18.93 33 25.86 33 33 33 C33 36.63 33 40.26 33 44 C28.6217488 44.02469081 24.24353433 44.04285557 19.86523438 44.05493164 C18.37531834 44.05996514 16.88540726 44.06679242 15.39550781 44.07543945 C13.25584696 44.08754805 11.11625132 44.09323807 8.9765625 44.09765625 C7.68830566 44.10289307 6.40004883 44.10812988 5.07275391 44.11352539 C2 44 2 44 0 43 C0 28.81 0 14.62 0 0 Z " fill="#1782B9" transform="translate(153,360)"/>
<path d="M0 0 C5 1 5 1 6.75 2.125 C8 4 8 4 9 11 C15.27 11.33 21.54 11.66 28 12 C28 14.31 28 16.62 28 19 C21.4 19 14.8 19 8 19 C8 20.65 8 22.3 8 24 C7.01 24 6.02 24 5 24 C5 24.66 5 25.32 5 26 C3.35 26.33 1.7 26.66 0 27 C0 18.09 0 9.18 0 0 Z " fill="#0383C3" transform="translate(155,366)"/>
<path d="M0 0 C1.69832841 2.54749261 2.8181246 4.73720047 3.98828125 7.53515625 C4.55385742 8.87416992 4.55385742 8.87416992 5.13085938 10.24023438 C5.90713106 12.09430475 6.68317965 13.94846856 7.45898438 15.80273438 C9.79034397 21.32146885 12.29910152 26.64231981 15.16870117 31.90405273 C16 34 16 34 15 37 C13.37509046 37.02698189 11.75005367 37.04638757 10.125 37.0625 C9.22007812 37.07410156 8.31515625 37.08570313 7.3828125 37.09765625 C5 37 5 37 3 36 C1.78863751 33.06050111 0.94214447 30.04055716 0 27 C-5.28 27.33 -10.56 27.66 -16 28 C-16.45375 29.299375 -16.9075 30.59875 -17.375 31.9375 C-18.75 35.875 -18.75 35.875 -21 37 C-22.49756871 37.09499503 -23.99942932 37.12987198 -25.5 37.125 C-26.2940625 37.12757813 -27.088125 37.13015625 -27.90625 37.1328125 C-30 37 -30 37 -32 36 C-29.10933941 26.40546697 -29.10933941 26.40546697 -26 23 C-25.71125 24.093125 -25.4225 25.18625 -25.125 26.3125 C-24.18106796 30.04013845 -24.18106796 30.04013845 -22 33 C-23.32 33.66 -24.64 34.32 -26 35 C-24.02 35 -22.04 35 -20 35 C-19.87625 34.2575 -19.7525 33.515 -19.625 32.75 C-19.0421624 30.18551458 -18.21335551 28.30833488 -17 26 C-14.04160645 25.97310551 -11.08345573 25.95321259 -8.125 25.9375 C-7.28324219 25.92912109 -6.44148438 25.92074219 -5.57421875 25.91210938 C-4.76855469 25.90888672 -3.96289062 25.90566406 -3.1328125 25.90234375 C-2.01737061 25.89448853 -2.01737061 25.89448853 -0.87939453 25.88647461 C1 26 1 26 3 27 C4.67654729 26.72057545 6.34608154 26.39171753 8 26 C7.505 24.8553125 7.505 24.8553125 7 23.6875 C6 21 6 21 6 18 C5.36893571 15.98848259 4.70626239 13.98636298 4 12 C3.34 12 2.68 12 2 12 C2 10.35 2 8.7 2 7 C1.34 7 0.68 7 0 7 C0 4.69 0 2.38 0 0 Z " fill="#0481C2" transform="translate(311,367)"/>
<path d="M0 0 C1.32 0 2.64 0 4 0 C8.8760139 7.61877173 8.8760139 7.61877173 8 13 C7.01 13.66 6.02 14.32 5 15 C5 16.32 5 17.64 5 19 C2.69 19.33 0.38 19.66 -2 20 C-2 20.66 -2 21.32 -2 22 C-3.60407328 22.02708567 -5.2082785 22.04643483 -6.8125 22.0625 C-8.15248047 22.07990234 -8.15248047 22.07990234 -9.51953125 22.09765625 C-12 22 -12 22 -15 21 C-14.835 20.38125 -14.67 19.7625 -14.5 19.125 C-13.87822101 16.48243927 -13.77493265 15.4501347 -15 13 C-11.04 13 -7.08 13 -3 13 C-2.938125 11.72125 -2.87625 10.4425 -2.8125 9.125 C-2.77769531 8.40570313 -2.74289063 7.68640625 -2.70703125 6.9453125 C-2.80371094 6.30335938 -2.90039062 5.66140625 -3 5 C-3.99 4.34 -4.98 3.68 -6 3 C-6 2.34 -6 1.68 -6 1 C-4.7934375 1.0309375 -4.7934375 1.0309375 -3.5625 1.0625 C-1.06645115 1.29633621 -1.06645115 1.29633621 0 0 Z " fill="#0482C5" transform="translate(216,381)"/>
<path d="M0 0 C2.97973615 -0.08184423 5.95716832 -0.14089764 8.9375 -0.1875 C9.76830078 -0.21263672 10.59910156 -0.23777344 11.45507812 -0.26367188 C17.27960852 -0.3316625 22.77204941 0.23424549 28 3 C30.0625 6.1875 30.0625 6.1875 31 9 C30.34 9 29.68 9 29 9 C28.525625 9.474375 28.05125 9.94875 27.5625 10.4375 C26 12 26 12 23 13 C22.34 12.34 21.68 11.68 21 11 C17.67309472 10.85824105 14.39346436 11.00604373 11.06640625 11.125 C8 11 8 11 5 9 C4.3125 5.875 4.3125 5.875 4 3 C3.01 2.67 2.02 2.34 1 2 C0.67 1.34 0.34 0.68 0 0 Z " fill="#068CC8" transform="translate(331,359)"/>
<path d="M0 0 C1.32 0.33 2.64 0.66 4 1 C3.67 14.2 3.34 27.4 3 41 C3.66 41 4.32 41 5 41 C5 41.66 5 42.32 5 43 C6.98 43 8.96 43 11 43 C11 38.38 11 33.76 11 29 C16.18568476 28.47264223 16.18568476 28.47264223 19 29 C21.16262914 30.78698636 22.3762296 32.65986031 24 35 C24.66 35.33 25.32 35.66 26 36 C26.33 35.34 26.66 34.68 27 34 C28.5625 36.3125 28.5625 36.3125 30 39 C29.67 39.99 29.34 40.98 29 42 C30.32 41.01 31.64 40.02 33 39 C33 39.66 33 40.32 33 41 C34.65 41.66 36.3 42.32 38 43 C38.33 42.01 38.66 41.02 39 40 C39.495 41.98 39.495 41.98 40 44 C35.46275788 44.75737581 31.50888528 45.01878616 27 44 C23.11079561 40.47110337 20.49104599 36.64737778 18 32 C18 31.34 18 30.68 18 30 C16.35 30 14.7 30 13 30 C13.01160156 30.92683594 13.02320312 31.85367187 13.03515625 32.80859375 C13.04417969 34.00613281 13.05320312 35.20367187 13.0625 36.4375 C13.07410156 37.63246094 13.08570312 38.82742188 13.09765625 40.05859375 C13 43 13 43 12 44 C10.33570949 44.09823937 8.66718069 44.12973631 7 44.125 C5.63875 44.12886719 5.63875 44.12886719 4.25 44.1328125 C2 44 2 44 1 43 C0.87814857 41.65016252 0.82233169 40.29425299 0.79467773 38.93920898 C0.7647599 37.64798378 0.7647599 37.64798378 0.73423767 36.33067322 C0.71752518 35.39526199 0.70081268 34.45985077 0.68359375 33.49609375 C0.66281265 32.54307877 0.64203156 31.59006378 0.62062073 30.60816956 C0.55501823 27.5513559 0.49619082 24.49445344 0.4375 21.4375 C0.39432494 19.37043337 0.35071099 17.30337586 0.30664062 15.23632812 C0.19932599 10.15764405 0.09808909 5.0788703 0 0 Z " fill="#1F86B9" transform="translate(108,360)"/>
<path d="M0 0 C4.44044513 1.35680268 6.45164515 3.13353058 9 7 C11.29324765 11.91410212 11.24012379 15.84315191 10 21 C8.04133815 26.25746076 5.42886761 28.77061737 1 32 C-5.08787705 34.02929235 -11.09267705 33.42351711 -17 31 C-17.66 33.97 -18.32 36.94 -19 40 C-20.31223496 36.06329512 -19.24296256 33.87511856 -18 30 C-16.96359375 30.02320313 -15.9271875 30.04640625 -14.859375 30.0703125 C-13.48959056 30.08907667 -12.1197983 30.10727618 -10.75 30.125 C-9.72712891 30.15013672 -9.72712891 30.15013672 -8.68359375 30.17578125 C-4.9391765 30.21213482 -2.17647273 30.07944349 1 28 C0.79375 27.236875 0.5875 26.47375 0.375 25.6875 C0 23 0 23 2 20 C2.34342449 18.66923011 2.67619874 17.33568021 3 16 C3.63654342 14.6520257 4.29605388 13.31403276 5 12 C5.66 12.66 6.32 13.32 7 14 C6.67 11.69 6.34 9.38 6 7 C5.34 7 4.68 7 4 7 C3.67 5.35 3.34 3.7 3 2 C2.01 1.67 1.02 1.34 0 1 C0 0.67 0 0.34 0 0 Z " fill="#0382C2" transform="translate(292,207)"/>
<path d="M0 0 C6.27 0 12.54 0 19 0 C19 2.64 19 5.28 19 8 C16.35177988 9.32411006 14.51061806 9.01892401 11.5546875 8.87890625 C10.47832031 8.83056641 9.40195313 8.78222656 8.29296875 8.73242188 C7.16503906 8.67634766 6.03710938 8.62027344 4.875 8.5625 C3.73933594 8.51029297 2.60367188 8.45808594 1.43359375 8.40429688 C-1.37786631 8.27435544 -4.18899465 8.13938086 -7 8 C-6.12890625 5.54296875 -6.12890625 5.54296875 -5 3 C-2.9375 2.3125 -2.9375 2.3125 -1 2 C-0.67 1.34 -0.34 0.68 0 0 Z " fill="#0581C5" transform="translate(166,395)"/>
<path d="M0 0 C0.886875 -0.01417969 1.77375 -0.02835937 2.6875 -0.04296875 C5 0.1875 5 0.1875 7 2.1875 C7.39764263 4.17571313 7.73775349 6.17694339 8 8.1875 C6.68 7.1975 5.36 6.2075 4 5.1875 C3.67 6.1775 3.34 7.1675 3 8.1875 C2.34 7.8575 1.68 7.5275 1 7.1875 C1.144375 7.868125 1.28875 8.54875 1.4375 9.25 C2.06976207 12.55181302 2.54066103 15.85729246 3 19.1875 C3.2784375 21.1365625 3.2784375 21.1365625 3.5625 23.125 C3.706875 24.135625 3.85125 25.14625 4 26.1875 C0.7 26.1875 -2.6 26.1875 -6 26.1875 C-5.484375 25.094375 -4.96875 24.00125 -4.4375 22.875 C-2.40057321 17.57327934 -3.16008023 12.69251633 -4 7.1875 C-5.98 9.8275 -7.96 12.4675 -10 15.1875 C-11 12.1875 -11 12.1875 -9.625 9.3125 C-9.08875 8.28125 -8.5525 7.25 -8 6.1875 C-7.814375 5.259375 -7.62875 4.33125 -7.4375 3.375 C-7.293125 2.653125 -7.14875 1.93125 -7 1.1875 C-4.52224905 -0.05137548 -2.76346293 0.02008331 0 0 Z M-1 17.1875 C-2.485 21.1475 -2.485 21.1475 -4 25.1875 C-1.69 25.1875 0.62 25.1875 3 25.1875 C2.40138258 22.83578869 1.73075648 20.5015622 1 18.1875 C0.34 17.8575 -0.32 17.5275 -1 17.1875 Z " fill="#118FC3" transform="translate(303,358.8125)"/>
<path d="M0 0 C0.33 0.66 0.66 1.32 1 2 C3.31 2 5.62 2 8 2 C8.38218767 3.65614657 8.71395102 5.32457024 9 7 C8.67 7.33 8.34 7.66 8 8 C9.32 8.33 10.64 8.66 12 9 C13.08895891 12.58077593 13.20189808 16.00468023 13.31640625 19.734375 C13.37924805 21.67763672 13.37924805 21.67763672 13.44335938 23.66015625 C13.48316671 25.02343476 13.52287906 26.38671606 13.5625 27.75 C13.60572274 29.12891875 13.64933821 30.50782526 13.69335938 31.88671875 C13.79943958 35.2577119 13.9014985 38.62877826 14 42 C17.465 42.495 17.465 42.495 21 43 C20.67 43.66 20.34 44.32 20 45 C13.84765625 45.09765625 13.84765625 45.09765625 12 45 C11 44 11 44 10.88647461 40.85717773 C10.88663367 39.46597303 10.89232494 38.07476239 10.90234375 36.68359375 C10.9037587 35.95253922 10.90517365 35.22148468 10.90663147 34.46827698 C10.91224592 32.12464368 10.92480078 29.78110461 10.9375 27.4375 C10.94251314 25.85221492 10.94707637 24.26692834 10.95117188 22.68164062 C10.96222003 18.7877239 10.97949428 14.89387795 11 11 C10.21753906 11.01160156 9.43507812 11.02320313 8.62890625 11.03515625 C7.61699219 11.04417969 6.60507813 11.05320312 5.5625 11.0625 C4.55316406 11.07410156 3.54382813 11.08570313 2.50390625 11.09765625 C0 11 0 11 -1 10 C-1.0979057 8.50261876 -1.12974864 7.00057108 -1.125 5.5 C-1.12757813 4.6853125 -1.13015625 3.870625 -1.1328125 3.03125 C-1 1 -1 1 0 0 Z " fill="#0384C9" transform="translate(229,359)"/>
<path d="M0 0 C2.97 0 5.94 0 9 0 C5 2 5 2 2 2 C2 14.87 2 27.74 2 41 C2.66 41 3.32 41 4 41 C4 41.66 4 42.32 4 43 C7.465 42.505 7.465 42.505 11 42 C11 28.14 11 14.28 11 0 C11.33 0 11.66 0 12 0 C12.02464513 6.1055471 12.04283371 12.21106551 12.05493164 18.31665039 C12.05997288 20.39543156 12.06680574 22.47420916 12.07543945 24.55297852 C12.08751422 27.53402586 12.09323024 30.51502649 12.09765625 33.49609375 C12.10281754 34.43150497 12.10797882 35.3669162 12.11329651 36.33067322 C12.11337204 37.19149002 12.11344757 38.05230682 12.11352539 38.93920898 C12.115746 39.70087875 12.11796661 40.46254852 12.12025452 41.24729919 C12 43 12 43 11 44 C9.33570949 44.09823937 7.66718069 44.12973631 6 44.125 C4.63875 44.12886719 4.63875 44.12886719 3.25 44.1328125 C1 44 1 44 0 43 C-0.09268999 41.64905018 -0.11747326 40.29332909 -0.11352539 38.93920898 C-0.11344986 38.07839218 -0.11337433 37.21757538 -0.11329651 36.33067322 C-0.10813522 35.39526199 -0.10297394 34.45985077 -0.09765625 33.49609375 C-0.0962413 32.54307877 -0.09482635 31.59006378 -0.09336853 30.60816956 C-0.08775152 27.55124835 -0.07519616 24.49439923 -0.0625 21.4375 C-0.05748719 19.37044376 -0.05292391 17.30338638 -0.04882812 15.23632812 C-0.03777656 10.15752412 -0.02050055 5.0787743 0 0 Z " fill="#2185B5" transform="translate(370,360)"/>
<path d="M0 0 C0.99 0.495 0.99 0.495 2 1 C2.33 14.86 2.66 28.72 3 43 C11.91 43 20.82 43 30 43 C30 43.33 30 43.66 30 44 C26.04900072 44.0246985 22.09803126 44.04285923 18.14697266 44.05493164 C16.14093449 44.06244036 14.13491798 44.0751447 12.12890625 44.08789062 C10.24365234 44.09272461 10.24365234 44.09272461 8.3203125 44.09765625 C6.57645264 44.10551147 6.57645264 44.10551147 4.79736328 44.11352539 C2 44 2 44 0 43 C0 28.81 0 14.62 0 0 Z " fill="#3090B7" transform="translate(153,360)"/>
<path d="M0 0 C-0.63808594 0.25394531 -1.27617187 0.50789062 -1.93359375 0.76953125 C-2.75988281 1.11371094 -3.58617187 1.45789063 -4.4375 1.8125 C-5.26121094 2.14894531 -6.08492187 2.48539063 -6.93359375 2.83203125 C-9.33372488 3.88403088 -9.33372488 3.88403088 -10 7 C-14.60547409 8.15136852 -17.93994143 8 -23 8 C-23 15.59 -23 23.18 -23 31 C-20.36 31.33 -17.72 31.66 -15 32 C-14.67 32.66 -14.34 33.32 -14 34 C-21.86862627 33.09208158 -21.86862627 33.09208158 -25 31 C-25.609375 29.1875 -25.609375 29.1875 -25.75 27 C-25.80285156 26.20078125 -25.85570312 25.4015625 -25.91015625 24.578125 C-25.93980469 23.72734375 -25.96945313 22.8765625 -26 22 C-26.03996094 21.12859375 -26.07992187 20.2571875 -26.12109375 19.359375 C-26.34172191 10.68998604 -26.34172191 10.68998604 -24 7 C-21.15601437 5.36914538 -18.15284827 4.32260337 -15.0625 3.25 C-14.23814453 2.94707031 -13.41378906 2.64414063 -12.56445312 2.33203125 C-3.23511054 -1.07837018 -3.23511054 -1.07837018 0 0 Z " fill="#2D91B9" transform="translate(158,199)"/>
<path d="M0 0 C0.33 0 0.66 0 1 0 C1.28875 1.093125 1.5775 2.18625 1.875 3.3125 C2.81893204 7.04013845 2.81893204 7.04013845 5 10 C3.02 10.99 3.02 10.99 1 12 C2.98 12 4.96 12 7 12 C7.12375 11.2575 7.2475 10.515 7.375 9.75 C8 7 8 7 10 3 C15.94 3 21.88 3 28 3 C28.99 5.31 29.98 7.62 31 10 C30.01 9.67 29.02 9.34 28 9 C27.505 6.525 27.505 6.525 27 4 C19.08 4.495 19.08 4.495 11 5 C10.54625 6.299375 10.0925 7.59875 9.625 8.9375 C8.25 12.875 8.25 12.875 6 14 C4.50243129 14.09499503 3.00057068 14.12987198 1.5 14.125 C0.7059375 14.12757813 -0.088125 14.13015625 -0.90625 14.1328125 C-3 14 -3 14 -5 13 C-4.54554036 11.58208592 -4.08625056 10.16571954 -3.625 8.75 C-3.24214844 7.56664062 -3.24214844 7.56664062 -2.8515625 6.359375 C-2.04826333 4.13372042 -1.10288338 2.09068328 0 0 Z " fill="#1D86B5" transform="translate(284,390)"/>
<path d="M0 0 C1.32 0.33 2.64 0.66 4 1 C3.67 14.2 3.34 27.4 3 41 C3.66 41 4.32 41 5 41 C5 41.99 5 42.98 5 44 C3.68 43.67 2.36 43.34 1 43 C0.67 28.81 0.34 14.62 0 0 Z " fill="#2D82B2" transform="translate(108,360)"/>
<path d="M0 0 C0.89460938 0.19335938 1.78921875 0.38671875 2.7109375 0.5859375 C4.52464844 0.97652344 4.52464844 0.97652344 6.375 1.375 C8.293125 1.78878906 8.293125 1.78878906 10.25 2.2109375 C13.28660763 2.84989036 16.32380186 3.43743534 19.375 4 C23.81434996 4.86729022 27.81418867 6.29466946 32 8 C32.61875 7.01 33.2375 6.02 33.875 5 C34.926875 3.515 34.926875 3.515 36 2 C36.66 2 37.32 2 38 2 C36.62845496 4.95409701 35.01136276 7.44008376 33 10 C26.06791657 9.2623431 19.72569607 7.15196754 13.11914062 4.99609375 C11.83233398 4.59197266 11.83233398 4.59197266 10.51953125 4.1796875 C9.36094604 3.80432861 9.36094604 3.80432861 8.17895508 3.42138672 C5.73661155 2.94906348 4.32692962 3.1710723 2 4 C0.34241503 5.16255285 0.34241503 5.16255285 -1.125 6.5625 C-4 9 -4 9 -6 9 C-6 8.01 -6 7.02 -6 6 C-5.01 6 -4.02 6 -3 6 C-3 5.34 -3 4.68 -3 4 C-2.34 3.67 -1.68 3.34 -1 3 C-0.67 2.01 -0.34 1.02 0 0 Z " fill="#2393BF" transform="translate(300,281)"/>
<path d="M0 0 C0.75410156 0.00451172 1.50820312 0.00902344 2.28515625 0.01367188 C4.14847127 0.02546501 6.01174555 0.04340058 7.875 0.0625 C7.875 0.7225 7.875 1.3825 7.875 2.0625 C9.195 1.7325 10.515 1.4025 11.875 1.0625 C11.99617188 1.70058594 12.11734375 2.33867187 12.2421875 2.99609375 C12.40976562 3.82238281 12.57734375 4.64867187 12.75 5.5 C12.99363281 6.73556641 12.99363281 6.73556641 13.2421875 7.99609375 C13.55542969 9.01896484 13.55542969 9.01896484 13.875 10.0625 C14.535 10.3925 15.195 10.7225 15.875 11.0625 C14.885 11.0625 13.895 11.0625 12.875 11.0625 C11.86190122 9.57758665 10.91265494 8.04867613 10 6.5 C7.68706325 3.39968053 6.58109023 2.22790653 2.7734375 1.3359375 C-2.33653949 1.39467287 -5.76653779 1.74171129 -9.51953125 5.390625 C-11.2661817 7.88075803 -12.76766743 10.3428991 -14.125 13.0625 C-14.73828125 11.234375 -14.73828125 11.234375 -15.125 9.0625 C-13.3125 6.3125 -13.3125 6.3125 -11.125 4.0625 C-10.465 4.0625 -9.805 4.0625 -9.125 4.0625 C-9.455 3.0725 -9.785 2.0825 -10.125 1.0625 C-6.93675432 -0.53162284 -3.49603338 -0.03924735 0 0 Z " fill="#207FA4" transform="translate(248.125,302.9375)"/>
<path d="M0 0 C2.79177569 2.79177569 2.31213484 4.63183572 2.4140625 8.5390625 C2.45273438 9.84101563 2.49140625 11.14296875 2.53125 12.484375 C2.56270763 13.86457862 2.59395491 15.24478704 2.625 16.625 C2.66317934 18.01304541 2.70223105 19.40106711 2.7421875 20.7890625 C2.83672943 24.19257185 2.92227897 27.59607165 3 31 C5.31 31.33 7.62 31.66 10 32 C9.67 32.66 9.34 33.32 9 34 C2.84765625 34.09765625 2.84765625 34.09765625 1 34 C0 33 0 33 -0.11352539 29.85717773 C-0.11336633 28.46597303 -0.10767506 27.07476239 -0.09765625 25.68359375 C-0.0962413 24.95253922 -0.09482635 24.22148468 -0.09336853 23.46827698 C-0.08775408 21.12464368 -0.07519922 18.78110461 -0.0625 16.4375 C-0.05748686 14.85221492 -0.05292363 13.26692834 -0.04882812 11.68164062 C-0.03777997 7.7877239 -0.02050572 3.89387795 0 0 Z " fill="#1480B0" transform="translate(240,370)"/>
<path d="M0 0 C1.4540625 0.0309375 1.4540625 0.0309375 2.9375 0.0625 C2.9375 1.0525 2.9375 2.0425 2.9375 3.0625 C4.87759522 4.76782323 4.87759522 4.76782323 6.9375 6.0625 C6.6075 6.7225 6.2775 7.3825 5.9375 8.0625 C5.19628906 7.32386719 4.45507812 6.58523438 3.69140625 5.82421875 C1.23712086 4.18970934 0.22671112 4.01517262 -2.72705078 4.49853516 C-5.91035434 5.51708852 -9.01266724 6.65664244 -12.125 7.875 C-14.25769559 8.68386537 -16.39431548 9.48247696 -18.53515625 10.26953125 C-19.94680054 10.81830933 -19.94680054 10.81830933 -21.38696289 11.37817383 C-24.35186554 12.13651146 -26.14706741 11.89071411 -29.0625 11.0625 C-28.7325 10.4025 -28.4025 9.7425 -28.0625 9.0625 C-26.2196371 8.85773746 -24.37631771 8.65649452 -22.53125 8.47265625 C-17.20270224 7.58737537 -10.93176196 5.93176196 -7.0625 2.0625 C-6.4025 2.3925 -5.7425 2.7225 -5.0625 3.0625 C-4.7325 2.4025 -4.4025 1.7425 -4.0625 1.0625 C-3.0625 0.0625 -3.0625 0.0625 0 0 Z " fill="#1E7AA0" transform="translate(190.0625,281.9375)"/>
<path d="M0 0 C5.94 0 11.88 0 18 0 C18 0.33 18 0.66 18 1 C13.05 1.33 8.1 1.66 3 2 C2.67 15.53 2.34 29.06 2 43 C1.34 42.67 0.68 42.34 0 42 C0 28.14 0 14.28 0 0 Z " fill="#2293BC" transform="translate(329,360)"/>
<path d="M0 0 C4.38811179 0.31343656 7.42544624 1.3482987 10.734375 4.34375 C13.15751925 7.51477828 13.79345682 11.07567955 14 15 C13.06831598 18.98083172 12.45748019 19.69501321 9 22 C8.67 20.68 8.34 19.36 8 18 C9.32 17.67 10.64 17.34 12 17 C10.77443263 12.62297367 9.46939453 8.30322683 8 4 C6.02 4.66 4.04 5.32 2 6 C1.01 5.01 0.02 4.02 -1 3 C-0.67 2.01 -0.34 1.02 0 0 Z " fill="#0E83B8" transform="translate(212,377)"/>
<path d="M0 0 C4.50235595 -0.02472359 9.00467236 -0.04287119 13.50708008 -0.05493164 C15.0386626 -0.0599596 16.57024033 -0.06678284 18.10180664 -0.07543945 C20.30356022 -0.08757229 22.50525033 -0.09324367 24.70703125 -0.09765625 C25.39150833 -0.10281754 26.07598541 -0.10797882 26.78120422 -0.11329651 C29.80906242 -0.1136536 32.10150142 0.03383381 35 1 C35 1.99 35 2.98 35 4 C34.48791992 3.84152588 33.97583984 3.68305176 33.44824219 3.51977539 C30.22646013 2.8357732 27.1205173 2.77804763 23.828125 2.68359375 C23.1457074 2.66281265 22.46328979 2.64203156 21.76019287 2.62062073 C19.59022644 2.55547948 17.42014376 2.49640596 15.25 2.4375 C13.77472779 2.39428103 12.29946713 2.35066568 10.82421875 2.30664062 C7.21626834 2.19983482 3.60818867 2.09846847 0 2 C0 1.34 0 0.68 0 0 Z " fill="#11BFDA" transform="translate(230,359)"/>
<path d="M0 0 C2 3.75 2 3.75 2 6 C2.804375 6.309375 3.60875 6.61875 4.4375 6.9375 C7 8 7 8 8 9 C9.66617115 9.04063832 11.33388095 9.042721 13 9 C13 8.34 13 7.68 13 7 C23.55808656 6.6309795 23.55808656 6.6309795 28 9 C27.67 9.66 27.34 10.32 27 11 C26.401875 10.814375 25.80375 10.62875 25.1875 10.4375 C22.83591238 9.77906313 22.83591238 9.77906313 20 11 C11.33231464 11.84035731 5.12688119 11.15639983 -2 6 C-2 3 -2 3 0 0 Z " fill="#1C81B1" transform="translate(205,237)"/>
<path d="M0 0 C1.69832841 2.54749261 2.8181246 4.73720047 3.98828125 7.53515625 C4.36533203 8.42783203 4.74238281 9.32050781 5.13085938 10.24023438 C5.90713106 12.09430475 6.68317965 13.94846856 7.45898438 15.80273438 C9.79034397 21.32146885 12.29910152 26.64231981 15.16870117 31.90405273 C16 34 16 34 15 37 C13.02 37 11.04 37 9 37 C9 36.67 9 36.34 9 36 C10.65 36 12.3 36 14 36 C14 35.01 14 34.02 14 33 C13.34 33 12.68 33 12 33 C11.75765625 32.29875 11.5153125 31.5975 11.265625 30.875 C9.63820658 26.268154 7.99169938 21.78479557 5.75 17.4375 C4 14 4 14 4 12 C3.34 12 2.68 12 2 12 C2 10.35 2 8.7 2 7 C1.34 7 0.68 7 0 7 C0 4.69 0 2.38 0 0 Z " fill="#298EB6" transform="translate(311,367)"/>
<path d="M0 0 C9.27267887 0.78360666 18.2172516 4.11282299 27 7 C27 7.33 27 7.66 27 8 C20.46619653 7.5644131 15.024129 6.14562282 8.89453125 3.83984375 C5.79536915 2.94062668 3.20973405 2.85258999 0 3 C0 4.65 0 6.3 0 8 C-1.98 8.33 -3.96 8.66 -6 9 C-6.33 9.99 -6.66 10.98 -7 12 C-7.33 11.34 -7.66 10.68 -8 10 C-6.85500893 8.52018126 -5.708983 7.04116318 -4.5625 5.5625 C-3.60537109 4.32693359 -3.60537109 4.32693359 -2.62890625 3.06640625 C-1 1 -1 1 0 0 Z " fill="#2F8BB5" transform="translate(160,142)"/>
<path d="M0 0 C2.52518848 2.52221767 4.07278232 4.84092766 5 8.34375 C3.66144944 7.56093695 2.32926356 6.76723123 1 5.96875 C0.2575 5.52789062 -0.485 5.08703125 -1.25 4.6328125 C-2.11625 3.99472656 -2.11625 3.99472656 -3 3.34375 C-3 2.68375 -3 2.02375 -3 1.34375 C-8.75002236 1.714307 -12.85369393 2.59107466 -18 5.34375 C-19.32 5.34375 -20.64 5.34375 -22 5.34375 C-22 4.68375 -22 4.02375 -22 3.34375 C-19.15792672 2.17083087 -16.31168786 1.05749146 -13.4375 -0.03125 C-12.63763672 -0.36769531 -11.83777344 -0.70414063 -11.01367188 -1.05078125 C-6.3423117 -2.76679111 -3.97510625 -3.31318487 0 0 Z " fill="#1B87BB" transform="translate(333,141.65625)"/>
<path d="M0 0 C0.66 0.33 1.32 0.66 2 1 C1.01 1.33 0.02 1.66 -1 2 C-2.33333333 3.83333333 -2.33333333 3.83333333 -3 6 C-2.2236068 9.0745356 -2.2236068 9.0745356 0 11 C6.00812682 13.68219947 11.45423467 14.61100985 18 15 C18 14.34 18 13.68 18 13 C18.99 13 19.98 13 21 13 C21.33 12.34 21.66 11.68 22 11 C22.66 11.66 23.32 12.32 24 13 C19.62657918 17.05026165 15.33161409 16.5367631 9.6328125 16.4296875 C3.55615794 15.71094341 -1.66050047 13.33949953 -6 9 C-5.88679697 5.71711224 -4.71715137 4.69645513 -2.4375 2.25 C-1.633125 1.5075 -0.82875 0.765 0 0 Z " fill="#2D89B3" transform="translate(196,388)"/>
<path d="M0 0 C0.90492188 0.02320313 1.80984375 0.04640625 2.7421875 0.0703125 C3.65226562 0.08835937 4.56234375 0.10640625 5.5 0.125 C6.19867188 0.14820313 6.89734375 0.17140625 7.6171875 0.1953125 C1.48888192 5.05569279 -3.77078587 4.27716225 -11.3828125 4.1953125 C-11.3828125 8.1553125 -11.3828125 12.1153125 -11.3828125 16.1953125 C-14.6828125 16.1953125 -17.9828125 16.1953125 -21.3828125 16.1953125 C-17.3828125 14.1953125 -17.3828125 14.1953125 -15.1796875 13.359375 C-13.16505044 12.3350568 -13.16505044 12.3350568 -12.7734375 10.03125 C-12.70382812 8.81308594 -12.70382812 8.81308594 -12.6328125 7.5703125 C-12.57609375 6.75304687 -12.519375 5.93578125 -12.4609375 5.09375 C-12.43515625 4.46726562 -12.409375 3.84078125 -12.3828125 3.1953125 C-11.1040625 3.0715625 -9.8253125 2.9478125 -8.5078125 2.8203125 C-4.84634677 2.46597711 -3.3894903 0.27782707 0 0 Z " fill="#3188AF" transform="translate(352.3828125,387.8046875)"/>
<path d="M0 0 C4.70125786 4.21907757 4.70125786 4.21907757 5.890625 7.328125 C6.04512524 11.10234516 4.59840899 12.61174853 2.3125 15.5625 C1.60738281 16.49191406 0.90226562 17.42132813 0.17578125 18.37890625 C-1.77670234 20.73100049 -3.7957488 22.88531206 -6 25 C-5.42316338 21.10635283 -3.45178223 18.98810959 -1 16 C-0.67 15.01 -0.34 14.02 0 13 C0.66 13 1.32 13 2 13 C1.34 8.71 0.68 4.42 0 0 Z " fill="#1F84B4" transform="translate(338,150)"/>
<path d="M0 0 C0.33 0 0.66 0 1 0 C0.97679687 0.83402344 0.95359375 1.66804687 0.9296875 2.52734375 C0.76399108 12.85969933 1.59985421 20.17976187 7 29 C7 29.66 7 30.32 7 31 C5.68 30.67 4.36 30.34 3 30 C2.896875 29.38125 2.79375 28.7625 2.6875 28.125 C2.12474627 25.63473516 2.12474627 25.63473516 -1 24 C-1.35644531 21.89282227 -1.35644531 21.89282227 -1.328125 19.31640625 C-1.32296875 18.38892578 -1.3178125 17.46144531 -1.3125 16.50585938 C-1.291875 15.53455078 -1.27125 14.56324219 -1.25 13.5625 C-1.24484375 12.59505859 -1.2396875 11.62761719 -1.234375 10.63085938 C-1.15480303 3.4644091 -1.15480303 3.4644091 0 0 Z " fill="#1A7597" transform="translate(185,213)"/>
<path d="M0 0 C4.875 4.75 4.875 4.75 6 7 C8.64 6.67 11.28 6.34 14 6 C13.67 7.32 13.34 8.64 13 10 C8.33333333 10 3.66666667 10 -1 10 C-0.42415568 7.61435923 0.22227595 5.33317216 1 3 C0.67 2.01 0.34 1.02 0 0 Z " fill="#1084BD" transform="translate(251,181)"/>
<path d="M0 0 C3.14565046 -0.08845016 6.29097375 -0.14086835 9.4375 -0.1875 C10.31599609 -0.21263672 11.19449219 -0.23777344 12.09960938 -0.26367188 C18.58429393 -0.33545805 25.73819595 0.01186926 30.75170898 4.60473633 C31.16364502 5.06517334 31.57558105 5.52561035 32 6 C29 6 29 6 26.6574707 4.53198242 C23.67553233 2.81295043 21.890942 2.58354587 18.48046875 2.48828125 C17.45888672 2.45283203 16.43730469 2.41738281 15.38476562 2.38085938 C13.80211914 2.34702148 13.80211914 2.34702148 12.1875 2.3125 C11.11306641 2.27833984 10.03863281 2.24417969 8.93164062 2.20898438 C6.28786467 2.12673357 3.64441079 2.05750791 1 2 C0.67 1.34 0.34 0.68 0 0 Z " fill="#15B9D4" transform="translate(111,359)"/>
<path d="M0 0 C3.58395685 0.11004161 7.16687917 0.24063297 10.75 0.375 C11.76578125 0.4059375 12.7815625 0.436875 13.828125 0.46875 C14.8078125 0.50742188 15.7875 0.54609375 16.796875 0.5859375 C17.69760742 0.6173584 18.59833984 0.6487793 19.52636719 0.68115234 C22.08822875 1.01137256 23.78127437 1.70951673 26 3 C26 3.66 26 4.32 26 5 C24.2984375 4.505 24.2984375 4.505 22.5625 4 C13.76967473 1.85578472 6.54304744 3.31732342 -2 6 C-1.01 4.68 -0.02 3.36 1 2 C0.67 1.34 0.34 0.68 0 0 Z " fill="#2593BE" transform="translate(224,164)"/>
<path d="M0 0 C0.66 0 1.32 0 2 0 C2 0.66 2 1.32 2 2 C2.66 2 3.32 2 4 2 C4.66 3.32 5.32 4.64 6 6 C6.99 5.67 7.98 5.34 9 5 C9.99 6.485 9.99 6.485 11 8 C12.96361864 8.57748803 12.96361864 8.57748803 15.125 8.6875 C16.40375 8.790625 17.6825 8.89375 19 9 C16.60236815 11.39763185 15.66726502 11.34280586 12.375 11.625 C11.55773437 11.69976562 10.74046875 11.77453125 9.8984375 11.8515625 C9.27195312 11.90054687 8.64546875 11.94953125 8 12 C6.66382103 10.18959679 5.33112616 8.3766216 4 6.5625 C3.2575 5.55316406 2.515 4.54382813 1.75 3.50390625 C0 1 0 1 0 0 Z " fill="#1D88B5" transform="translate(263,315)"/>
<path d="M0 0 C0.66 0.33 1.32 0.66 2 1 C-3.45274874 5.62298262 -6.10195312 7.19490116 -13.375 7.25 C-14.04789063 7.270625 -14.72078125 7.29125 -15.4140625 7.3125 C-19.58567794 7.34534737 -21.97577629 6.94667952 -25 4 C-23.40671875 4.05220703 -23.40671875 4.05220703 -21.78125 4.10546875 C-11.05940199 4.39161204 -11.05940199 4.39161204 -1 1 C-0.67 0.67 -0.34 0.34 0 0 Z " fill="#217DAF" transform="translate(266,252)"/>
<path d="M0 0 C0.66 0.33 1.32 0.66 2 1 C-3.46232505 4.71902982 -7.41101223 5.83556004 -14 5 C-17.5625 4 -17.5625 4 -20 3 C-20.66 5.97 -21.32 8.94 -22 12 C-23.31223496 8.06329512 -22.24296256 5.87511856 -21 2 C-19.98679687 2.02320313 -18.97359375 2.04640625 -17.9296875 2.0703125 C-16.57813242 2.0890841 -15.22656931 2.1072828 -13.875 2.125 C-12.87726563 2.15013672 -12.87726563 2.15013672 -11.859375 2.17578125 C-7.47573433 2.21875812 -4.10432239 1.44930079 0 0 Z " fill="#2187B4" transform="translate(295,235)"/>
<path d="M0 0 C0 3 0 3 -1 6 C-1.66 6 -2.32 6 -3 6 C-3.0515625 6.81984375 -3.103125 7.6396875 -3.15625 8.484375 C-4.06198347 17.08884298 -4.06198347 17.08884298 -6.7734375 19.72265625 C-9.80175244 21.2931021 -11.84090651 22.21858337 -15.2578125 21.57421875 C-16.12019531 21.28998047 -16.12019531 21.28998047 -17 21 C-10.375 18.125 -10.375 18.125 -7 17 C-6.90203125 16.34773438 -6.8040625 15.69546875 -6.703125 15.0234375 C-5.66770521 8.97158737 -4.44801335 4.44801335 0 0 Z " fill="#2586AE" transform="translate(223,180)"/>
<path d="M0 0 C4.29 0.33 8.58 0.66 13 1 C13 1.33 13 1.66 13 2 C9.37 2 5.74 2 2 2 C2 5.3 2 8.6 2 12 C7.445 11.505 7.445 11.505 13 11 C13 11.66 13 12.32 13 13 C11.02090602 13.02686553 9.04171029 13.04633375 7.0625 13.0625 C5.96035156 13.07410156 4.85820313 13.08570313 3.72265625 13.09765625 C1 13 1 13 0 12 C-0.14355117 7.99779347 -0.04216403 4.00558317 0 0 Z " fill="#2589B6" transform="translate(119,368)"/>
<path d="M0 0 C0.68707031 0.34933594 1.37414062 0.69867188 2.08203125 1.05859375 C2.98308594 1.51363281 3.88414062 1.96867187 4.8125 2.4375 C6.15248047 3.11619141 6.15248047 3.11619141 7.51953125 3.80859375 C12.05974284 5.9893253 16.23736413 6.29878097 21.1875 6.5625 C21.93708984 6.60568359 22.68667969 6.64886719 23.45898438 6.69335938 C25.30578375 6.79922685 27.15286834 6.9000976 29 7 C29 7.33 29 7.66 29 8 C26.14576808 8.02718316 23.29179985 8.04692705 20.4375 8.0625 C19.23770508 8.07506836 19.23770508 8.07506836 18.01367188 8.08789062 C13.25762094 8.10730308 8.67548538 7.98996247 4 7 C1.5625 4.5625 1.5625 4.5625 0 2 C0 1.34 0 0.68 0 0 Z " fill="#1E7496" transform="translate(231,260)"/>
<path d="M0 0 C4.44044513 1.35680268 6.45164515 3.13353058 9 7 C11.36624054 12.07051545 10.92368505 15.6426267 10 21 C9.67 21 9.34 21 9 21 C9 17.7 9 14.4 9 11 C8.34 11 7.68 11 7 11 C6.67 9.68 6.34 8.36 6 7 C5.34 7 4.68 7 4 7 C3.67 5.35 3.34 3.7 3 2 C2.01 1.67 1.02 1.34 0 1 C0 0.67 0 0.34 0 0 Z " fill="#2181B4" transform="translate(292,207)"/>
<path d="M0 0 C0.99 0.33 1.98 0.66 3 1 C3.33 2.65 3.66 4.3 4 6 C4.66 6 5.32 6 6 6 C6 6.99 6 7.98 6 9 C4.54263913 9.19491452 3.08405407 9.38069358 1.625 9.5625 C0.81289063 9.66691406 0.00078125 9.77132813 -0.8359375 9.87890625 C-3 10 -3 10 -5 9 C-5 8.01 -5 7.02 -5 6 C-1.71303767 5.20046862 -0.28976808 4.90341064 3 6 C1.515 3.03 1.515 3.03 0 0 Z " fill="#0782C1" transform="translate(319,394)"/>
<path d="M0 0 C0 3.41321235 -0.66867466 4.39472885 -2.5 7.1875 C-2.9640625 7.90292969 -3.428125 8.61835938 -3.90625 9.35546875 C-4.44765625 10.16951172 -4.44765625 10.16951172 -5 11 C-8.71888239 10.49287967 -11.73454239 9.88391785 -15 8 C-13.9275 7.71125 -12.855 7.4225 -11.75 7.125 C-6.52011285 5.55603386 -3.73609474 4.00295865 0 0 Z " fill="#13779E" transform="translate(230,318)"/>
<path d="M0 0 C0.33 0.66 0.66 1.32 1 2 C1.66 2.33 2.32 2.66 3 3 C2.67 3.66 2.34 4.32 2 5 C2.66 5.33 3.32 5.66 4 6 C3.67 7.32 3.34 8.64 3 10 C5.64 10 8.28 10 11 10 C11 10.33 11 10.66 11 11 C9.18757948 11.02687279 7.37504767 11.04633715 5.5625 11.0625 C4.55316406 11.07410156 3.54382813 11.08570313 2.50390625 11.09765625 C0 11 0 11 -1 10 C-1.0979057 8.50261876 -1.12974864 7.00057108 -1.125 5.5 C-1.12757813 4.6853125 -1.13015625 3.870625 -1.1328125 3.03125 C-1 1 -1 1 0 0 Z " fill="#167FB9" transform="translate(229,359)"/>
<path d="M0 0 C0.33 0.66 0.66 1.32 1 2 C-0.269553 2.64834654 -1.54069706 3.29357815 -2.8125 3.9375 C-3.52019531 4.29714844 -4.22789062 4.65679687 -4.95703125 5.02734375 C-8.16201599 6.55323515 -10.67979266 7.1200034 -14.1875 7.0625 C-16.0746875 7.0315625 -16.0746875 7.0315625 -18 7 C-18 7.99 -18 8.98 -18 10 C-19.98 10.99 -19.98 10.99 -22 12 C-20.125 6.125 -20.125 6.125 -19 5 C-17.31455074 4.86670436 -15.62625604 4.76880187 -13.9375 4.6875 C-8.39266865 4.25317901 -4.77339786 2.79198743 0 0 Z " fill="#2581A3" transform="translate(300,243)"/>
<path d="M0 0 C0.33 0 0.66 0 1 0 C1.37700973 5.5294761 1.37700973 5.5294761 -0.49609375 7.8671875 C-2.39525708 10.5605464 -2.34137948 12.1127524 -2.25 15.375 C-2.22421875 16.33792969 -2.1984375 17.30085938 -2.171875 18.29296875 C-1.98426548 21.24781869 -1.62595394 24.10496301 -1 27 C-3.94116802 23.98081691 -4.39912568 21.47626909 -4.46679688 17.3125 C-4.45712891 16.61125 -4.44746094 15.91 -4.4375 15.1875 C-4.43427734 14.47207031 -4.43105469 13.75664062 -4.42773438 13.01953125 C-4.28211628 7.53625694 -3.3947972 4.24349651 0 0 Z " fill="#2488B3" transform="translate(198,208)"/>
<path d="M0 0 C1.875 0.1875 1.875 0.1875 4 1 C7.06924553 5.53079102 5.85799571 10.88669221 5 16 C4.67 16.99 4.34 17.98 4 19 C3.34 19 2.68 19 2 19 C2.33 13.39 2.66 7.78 3 2 C2.01 2 1.02 2 0 2 C0 1.34 0 0.68 0 0 Z " fill="#208BB7" transform="translate(140,365)"/>
<path d="M0 0 C0.49628906 0.38671875 0.99257812 0.7734375 1.50390625 1.171875 C5.84883147 4.50270951 10.18629161 7.39257462 15 10 C12 12 12 12 8.5625 11.4375 C4.58562775 9.83279716 3.19742286 8.63419935 1 5 C0.25 2.1875 0.25 2.1875 0 0 Z " fill="#18759C" transform="translate(192,244)"/>
<path d="M0 0 C6.03438442 0.51356463 10.5320153 2.39219191 16 5 C15.67 10.94 15.34 16.88 15 23 C14.67 23 14.34 23 14 23 C13.67 17.39 13.34 11.78 13 6 C10.36 5.34 7.72 4.68 5 4 C5 3.34 5 2.68 5 2 C3.35 1.67 1.7 1.34 0 1 C0 0.67 0 0.34 0 0 Z " fill="#2F85AB" transform="translate(276,107)"/>
<path d="M0 0 C0.33 0.99 0.66 1.98 1 3 C1.99 3.33 2.98 3.66 4 4 C3.67 4.66 3.34 5.32 3 6 C2.34 6 1.68 6 1 6 C1 6.66 1 7.32 1 8 C0.01 8.495 0.01 8.495 -1 9 C-1.309375 9.99 -1.61875 10.98 -1.9375 12 C-2.288125 12.99 -2.63875 13.98 -3 15 C-3.99 15.33 -4.98 15.66 -6 16 C-5.23757784 12.38944909 -3.87526626 9.14165375 -2.4375 5.75 C-1.98246094 4.67234375 -1.52742188 3.5946875 -1.05859375 2.484375 C-0.70925781 1.66453125 -0.35992187 0.8446875 0 0 Z " fill="#1787BE" transform="translate(291,374)"/>
<path d="M0 0 C-6.81475381 2.5219955 -13.65842075 4.91321666 -20.56640625 7.16796875 C-22.96924152 7.92886671 -22.96924152 7.92886671 -25 9 C-24.67 8.01 -24.34 7.02 -24 6 C-21.10441559 4.5522078 -19.25811062 4 -16 4 C-16 3.34 -16 2.68 -16 2 C-13.89829344 1.46932659 -11.79352402 0.95077143 -9.6875 0.4375 C-7.92986328 0.00244141 -7.92986328 0.00244141 -6.13671875 -0.44140625 C-3 -1 -3 -1 0 0 Z " fill="#2C8DBA" transform="translate(357,228)"/>
<path d="M0 0 C-0.63808594 0.25394531 -1.27617187 0.50789062 -1.93359375 0.76953125 C-2.75988281 1.11371094 -3.58617187 1.45789063 -4.4375 1.8125 C-5.26121094 2.14894531 -6.08492187 2.48539063 -6.93359375 2.83203125 C-9.33372488 3.88403088 -9.33372488 3.88403088 -10 7 C-13.40562852 7.77842938 -16.50765756 8.09978121 -20 8 C-18 6 -18 6 -15 5 C-14.67 4.34 -14.34 3.68 -14 3 C-11.6015625 1.89453125 -11.6015625 1.89453125 -8.625 0.8125 C-7.64789063 0.44769531 -6.67078125 0.08289063 -5.6640625 -0.29296875 C-3 -1 -3 -1 0 0 Z " fill="#1787BA" transform="translate(158,199)"/>
<path d="M0 0 C6.48472993 0.73690113 12.69239743 2.35318751 19 4 C19 7.3 19 10.6 19 14 C17 11 17 11 16.3515625 8.48828125 C14.64614327 5.34853544 12.82183958 4.8237194 9.4921875 3.78320312 C8.44417969 3.48833008 8.44417969 3.48833008 7.375 3.1875 C6.66859375 2.97158203 5.9621875 2.75566406 5.234375 2.53320312 C3.4949038 2.00430985 1.74806656 1.49975139 0 1 C0 0.67 0 0.34 0 0 Z " fill="#2685AD" transform="translate(145,233)"/>
<path d="M0 0 C2.97 0.495 2.97 0.495 6 1 C6.33 2.65 6.66 4.3 7 6 C7.88042969 5.97679687 8.76085937 5.95359375 9.66796875 5.9296875 C10.82941406 5.91164062 11.99085938 5.89359375 13.1875 5.875 C14.33605469 5.85179687 15.48460937 5.82859375 16.66796875 5.8046875 C19.91740372 5.99515848 22.08660521 6.60639873 25 8 C23 9 23 9 21.203125 8.5390625 C18.57293032 7.89550423 16.44298313 8.15186711 13.75 8.375 C9.06352171 8.45677747 6.84368084 7.65307004 3.3125 4.5625 C1.36328125 2.62890625 1.36328125 2.62890625 0 1 C0 0.67 0 0.34 0 0 Z " fill="#3197C0" transform="translate(254,171)"/>
<path d="M0 0 C0.99 0 1.98 0 3 0 C2.67 1.32 2.34 2.64 2 4 C-1.89668715 4.95973961 -5.25691005 5.0169791 -9.25 4.6875 C-10.30703125 4.60886719 -11.3640625 4.53023438 -12.453125 4.44921875 C-13.71382812 4.22685547 -13.71382812 4.22685547 -15 4 C-15.33 3.34 -15.66 2.68 -16 2 C-10.72 2 -5.44 2 0 2 C0 1.34 0 0.68 0 0 Z " fill="#0E7AA7" transform="translate(260,266)"/>
<path d="M0 0 C0.66 0 1.32 0 2 0 C2.04254356 1.99954746 2.04080783 4.00041636 2 6 C0.37905182 7.62094818 -1.39127885 7.20950959 -3.625 7.25 C-8.49945624 7.22198588 -11.7058875 6.24040652 -16 4 C-16 3.67 -16 3.34 -16 3 C-11.692037 2.79962963 -8.9548401 3.41806396 -5 5 C-1.79129767 5.16757757 -1.79129767 5.16757757 1 5 C0.67 3.35 0.34 1.7 0 0 Z " fill="#1B86B6" transform="translate(212,388)"/>
<path d="M0 0 C3.81747451 2.46288678 3.81747451 2.46288678 4.61328125 4.8046875 C5.76569217 11.34665655 5.78283629 17.32574556 2 23 C1.34 23.33 0.68 23.66 0 24 C0.50021186 21.74904661 1.03993199 19.92457291 2.125 17.875 C3.89425787 12.06172415 2.69645302 5.39290603 0 0 Z " fill="#2E87B4" transform="translate(360,364)"/>
<path d="M0 0 C1.32 0 2.64 0 4 0 C4 0.66 4 1.32 4 2 C5.32 1.67 6.64 1.34 8 1 C8.12117188 1.63808594 8.24234375 2.27617187 8.3671875 2.93359375 C8.53476562 3.75988281 8.70234375 4.58617187 8.875 5.4375 C9.11863281 6.67306641 9.11863281 6.67306641 9.3671875 7.93359375 C9.68042969 8.95646484 9.68042969 8.95646484 10 10 C10.66 10.33 11.32 10.66 12 11 C11.01 11 10.02 11 9 11 C7.24609375 9.1015625 7.24609375 9.1015625 5.4375 6.625 C3.69369245 4.26242203 2.07750196 2.07750196 0 0 Z " fill="#1D89B8" transform="translate(252,303)"/>
<path d="M0 0 C4.0042343 3.49087093 5.62671065 5.64951939 6 11 C4.125 10.8125 4.125 10.8125 2 10 C0.12320013 6.62176024 -0.21849583 3.82367701 0 0 Z " fill="#0F88BD" transform="translate(140,392)"/>
<path d="M0 0 C3.3125 -0.3125 3.3125 -0.3125 7 0 C8.6875 2.25 8.6875 2.25 10 5 C11.051875 5.99 11.051875 5.99 12.125 7 C14.30904742 9.32965058 14.65253717 10.8728345 15 14 C14.505 13.319375 14.01 12.63875 13.5 11.9375 C9.56145654 7.30971144 5.05527936 3.37018624 0 0 Z " fill="#2288B1" transform="translate(295,198)"/>
<path d="M0 0 C2.3125 2.5 2.3125 2.5 4 5 C3.01 5.495 3.01 5.495 2 6 C1.67 5.34 1.34 4.68 1 4 C-3.25800538 2.58066487 -7.22911538 2.27348323 -11.4375 4 C-11.953125 4.33 -12.46875 4.66 -13 5 C-13.66 4.34 -14.32 3.68 -15 3 C-13.44033782 2.491217 -11.87710759 1.99336531 -10.3125 1.5 C-9.44238281 1.2215625 -8.57226562 0.943125 -7.67578125 0.65625 C-4.94847792 -0.01263607 -2.79194919 -0.30183234 0 0 Z " fill="#2389B0" transform="translate(222,106)"/>
<path d="M0 0 C0.66 1.32 1.32 2.64 2 4 C1 5 1 5 -1.72265625 5.09765625 C-3.37587891 5.08025391 -3.37587891 5.08025391 -5.0625 5.0625 C-6.71958984 5.04896484 -6.71958984 5.04896484 -8.41015625 5.03515625 C-9.26480469 5.02355469 -10.11945313 5.01195312 -11 5 C-11.33 5.66 -11.66 6.32 -12 7 C-12.33 6.01 -12.66 5.02 -13 4 C-12 3 -12 3 -9.27734375 2.90234375 C-7.62412109 2.91974609 -7.62412109 2.91974609 -5.9375 2.9375 C-4.28041016 2.95103516 -4.28041016 2.95103516 -2.58984375 2.96484375 C-1.73519531 2.97644531 -0.88054687 2.98804688 0 3 C0 2.01 0 1.02 0 0 Z " fill="#2094C5" transform="translate(262,365)"/>
<path d="M0 0 C0.99 0.99 1.98 1.98 3 3 C1.2984375 3.12375 1.2984375 3.12375 -0.4375 3.25 C-4.71161266 3.75864218 -8.10261746 5.22991997 -11.921875 7.16015625 C-14 8 -14 8 -18 8 C-18 7.34 -18 6.68 -18 6 C-12.06 4.02 -6.12 2.04 0 0 Z " fill="#2C87B0" transform="translate(329,139)"/>
<path d="M0 0 C1.19882813 0.15275391 1.19882813 0.15275391 2.421875 0.30859375 C3.02515625 0.39238281 3.6284375 0.47617187 4.25 0.5625 C4.25 1.2225 4.25 1.8825 4.25 2.5625 C-0.7 2.5625 -5.65 2.5625 -10.75 2.5625 C-7.44376175 -0.74373825 -4.47451938 -0.5922158 0 0 Z " fill="#1C8EB6" transform="translate(209.75,358.4375)"/>
<path d="M0 0 C3.56315478 3.56315478 3.74509256 5.07178954 4 10 C2.9648201 13.88192461 2.41625138 14.72249908 -1 17 C-1.33 15.68 -1.66 14.36 -2 13 C-0.68 12.67 0.64 12.34 2 12 C1.34 8.04 0.68 4.08 0 0 Z " fill="#2189AD" transform="translate(222,382)"/>
<path d="M0 0 C0.33 0 0.66 0 1 0 C1.6875 2.8125 1.6875 2.8125 2 6 C0.625 7.5625 0.625 7.5625 -1 9 C-1.72197162 11.60611077 -1.72197162 11.60611077 -2 14 C-2.99 13.67 -3.98 13.34 -5 13 C-4.54554036 11.58208592 -4.08625056 10.16571954 -3.625 8.75 C-3.24214844 7.56664062 -3.24214844 7.56664062 -2.8515625 6.359375 C-2.04826333 4.13372042 -1.10288338 2.09068328 0 0 Z " fill="#2B8CB5" transform="translate(284,390)"/>
<path d="M0 0 C0.66 0 1.32 0 2 0 C0.62845496 2.95409701 -0.98863724 5.44008376 -3 8 C-9.75 7.25 -9.75 7.25 -12 5 C-9.36 5.33 -6.72 5.66 -4 6 C-3.071875 4.515 -3.071875 4.515 -2.125 3 C-1.42375 2.01 -0.7225 1.02 0 0 Z " fill="#2B8AB5" transform="translate(336,283)"/>
<path d="M0 0 C0.66 0.33 1.32 0.66 2 1 C2 1.66 2 2.32 2 3 C3.32 2.67 4.64 2.34 6 2 C2.25 8.875 2.25 8.875 0 10 C-0.19412181 8.52168779 -0.38012131 7.04230684 -0.5625 5.5625 C-0.66691406 4.73878906 -0.77132813 3.91507812 -0.87890625 3.06640625 C-0.91886719 2.38449219 -0.95882813 1.70257813 -1 1 C-0.67 0.67 -0.34 0.34 0 0 Z " fill="#1881BB" transform="translate(338,273)"/>
<path d="M0 0 C2 3.75 2 3.75 2 6 C4.475 6.99 4.475 6.99 7 8 C5.375 8.75 5.375 8.75 3 9 C-0.25 7.0625 -0.25 7.0625 -3 5 C-2.01 3.35 -1.02 1.7 0 0 Z " fill="#1083B5" transform="translate(205,237)"/>
<path d="M0 0 C0.99 0.33 1.98 0.66 3 1 C1.50958227 4.79379058 -0.69062512 6.68343758 -4 9 C-4.66 9 -5.32 9 -6 9 C-6 8.01 -6 7.02 -6 6 C-5.01 6 -4.02 6 -3 6 C-3 5.34 -3 4.68 -3 4 C-2.34 3.67 -1.68 3.34 -1 3 C-0.67 2.01 -0.34 1.02 0 0 Z " fill="#1B84B0" transform="translate(300,281)"/>
<path d="M0 0 C0.66 0.66 1.32 1.32 2 2 C3.9931567 2.02375926 3.9931567 2.02375926 6.125 1.625 C7.40375 1.41875 8.6825 1.2125 10 1 C9.67 2.32 9.34 3.64 9 5 C6.36 5 3.72 5 1 5 C0.67 3.35 0.34 1.7 0 0 Z " fill="#1C86B7" transform="translate(255,186)"/>
<path d="M0 0 C2.31 0.33 4.62 0.66 7 1 C6.01 1.495 6.01 1.495 5 2 C5 2.66 5 3.32 5 4 C5.66 4 6.32 4 7 4 C6.67 4.99 6.34 5.98 6 7 C3.69 5.35 1.38 3.7 -1 2 C-0.67 1.34 -0.34 0.68 0 0 Z " fill="#158ABC" transform="translate(280,179)"/>
<path d="M0 0 C0.66 0 1.32 0 2 0 C2.33 1.65 2.66 3.3 3 5 C1.02 5.33 -0.96 5.66 -3 6 C-3.33 6.99 -3.66 7.98 -4 9 C-4.33 8.34 -4.66 7.68 -5 7 C-4.21654285 5.82780457 -3.42297164 4.66236332 -2.625 3.5 C-2.18414062 2.8503125 -1.74328125 2.200625 -1.2890625 1.53125 C-0.65097656 0.77328125 -0.65097656 0.77328125 0 0 Z " fill="#1786B6" transform="translate(157,145)"/>
<path d="M0 0 C0.66 0.33 1.32 0.66 2 1 C1.195625 1.804375 0.39125 2.60875 -0.4375 3.4375 C-3.68813058 7.26663263 -3.88073863 11.1211256 -4 16 C-4.33 16 -4.66 16 -5 16 C-5.05437607 14.41705218 -5.09296271 12.83355744 -5.125 11.25 C-5.14820313 10.36828125 -5.17140625 9.4865625 -5.1953125 8.578125 C-4.98637114 5.82009905 -4.51063339 4.30096477 -3 2 C-2.01 1.34 -1.02 0.68 0 0 Z " fill="#2485B2" transform="translate(197,361)"/>
<path d="M0 0 C0.66 0 1.32 0 2 0 C2 3.96 2 7.92 2 12 C1.34 12 0.68 12 0 12 C-0.19477739 10.37585622 -0.38059458 8.75063577 -0.5625 7.125 C-0.66691406 6.22007812 -0.77132813 5.31515625 -0.87890625 4.3828125 C-1 2 -1 2 0 0 Z " fill="#1D7EB2" transform="translate(339,370)"/>
<path d="M0 0 C0.99 0.33 1.98 0.66 3 1 C3 1.66 3 2.32 3 3 C3.99 3.33 4.98 3.66 6 4 C7.75 6.375 7.75 6.375 9 9 C8.67 9.99 8.34 10.98 8 12 C6.66382103 10.18959679 5.33112616 8.3766216 4 6.5625 C3.2575 5.55316406 2.515 4.54382813 1.75 3.50390625 C0 1 0 1 0 0 Z " fill="#2277A1" transform="translate(151,279)"/>
<path d="M0 0 C4.37859255 0.50522222 6.81651224 3.17827222 10 6 C9.67 6.66 9.34 7.32 9 8 C7.68 7.34 6.36 6.68 5 6 C5 5.01 5 4.02 5 3 C4.01 3.33 3.02 3.66 2 4 C2 3.34 2 2.68 2 2 C1.34 2 0.68 2 0 2 C0 1.34 0 0.68 0 0 Z " fill="#1B82AE" transform="translate(271,187)"/>
<path d="M0 0 C1.66832577 2.50248865 2.62381674 4.41149187 3.625 7.1875 C4.01558594 8.26064453 4.01558594 8.26064453 4.4140625 9.35546875 C4.60742188 9.89816406 4.80078125 10.44085938 5 11 C4.01 11.33 3.02 11.66 2 12 C2 10.35 2 8.7 2 7 C1.34 7 0.68 7 0 7 C0 4.69 0 2.38 0 0 Z " fill="#1C83B3" transform="translate(311,367)"/>
<path d="M0 0 C6.27 0 12.54 0 19 0 C19 0.33 19 0.66 19 1 C16.22922802 1.16774403 13.45839073 1.33423936 10.6875 1.5 C9.50897461 1.57154297 9.50897461 1.57154297 8.30664062 1.64453125 C7.1706543 1.71220703 7.1706543 1.71220703 6.01171875 1.78125 C5.31522217 1.82314453 4.61872559 1.86503906 3.90112305 1.90820312 C2.26903034 1.98700971 0.63399421 2 -1 2 C-0.67 1.34 -0.34 0.68 0 0 Z " fill="#1795CE" transform="translate(164,368)"/>
<path d="M0 0 C0 3.41321235 -0.66867466 4.39472885 -2.5 7.1875 C-2.9640625 7.90292969 -3.428125 8.61835938 -3.90625 9.35546875 C-4.2671875 9.89816406 -4.628125 10.44085938 -5 11 C-6.32 10.67 -7.64 10.34 -9 10 C-8.01 10 -7.02 10 -6 10 C-5.7525 9.0925 -5.505 8.185 -5.25 7.25 C-3.96018658 3.89648511 -2.68028958 2.32291764 0 0 Z " fill="#2C7B98" transform="translate(230,318)"/>
<path d="M0 0 C1.32 0.33 2.64 0.66 4 1 C4.66 4.3 5.32 7.6 6 11 C3.46166551 9.73083275 3.10599099 8.58375191 1.875 6.0625 C1.52179688 5.35222656 1.16859375 4.64195312 0.8046875 3.91015625 C0 2 0 2 0 0 Z " fill="#2688B2" transform="translate(287,186)"/>
<path d="M0 0 C2.97 0.495 2.97 0.495 6 1 C6 1.99 6 2.98 6 4 C3.03 3.505 3.03 3.505 0 3 C0 2.01 0 1.02 0 0 Z " fill="#1385B2" transform="translate(314,400)"/>
<path d="M0 0 C2.3828125 -0.29296875 2.3828125 -0.29296875 5.125 -0.1875 C6.03507812 -0.16042969 6.94515625 -0.13335937 7.8828125 -0.10546875 C8.58148438 -0.07066406 9.28015625 -0.03585937 10 0 C5.82744729 3.58050131 3.33135955 3.26656798 -2 3 C-1.34 2.01 -0.68 1.02 0 0 Z " fill="#1E83BA" transform="translate(350,388)"/>
<path d="M0 0 C0.66 0 1.32 0 2 0 C2.33 1.32 2.66 2.64 3 4 C1.35 5.32 -0.3 6.64 -2 8 C-1.125 1.125 -1.125 1.125 0 0 Z " fill="#217AB4" transform="translate(222,363)"/>
<path d="M0 0 C0.33 1.32 0.66 2.64 1 4 C-1.6666419 5.33332095 -3.16680303 4.67102033 -6 4 C-6 3.01 -6 2.02 -6 1 C-3.03 1.495 -3.03 1.495 0 2 C0 1.34 0 0.68 0 0 Z " fill="#0D80BD" transform="translate(184,399)"/>
<path d="M0 0 C0.66 0 1.32 0 2 0 C2.33 2.31 2.66 4.62 3 7 C2.34 7 1.68 7 1 7 C1 7.99 1 8.98 1 10 C0.01 9.67 -0.98 9.34 -2 9 C-1.505 7.6078125 -1.505 7.6078125 -1 6.1875 C0.14967004 3.07970709 0.14967004 3.07970709 0 0 Z " fill="#097CCA" transform="translate(260,115)"/>
<path d="M0 0 C2.475 0.99 2.475 0.99 5 2 C4.67 3.65 4.34 5.3 4 7 C3.01 7 2.02 7 1 7 C0.67 4.69 0.34 2.38 0 0 Z " fill="#1884BC" transform="translate(296,226)"/>
<path d="M0 0 C0.66 0.33 1.32 0.66 2 1 C1.484375 1.598125 0.96875 2.19625 0.4375 2.8125 C-0.2740625 3.8953125 -0.2740625 3.8953125 -1 5 C-0.67 5.99 -0.34 6.98 0 8 C-0.99 8 -1.98 8 -3 8 C-3.33 6.35 -3.66 4.7 -4 3 C-2.68 2.01 -1.36 1.02 0 0 Z " fill="#2287B6" transform="translate(140,384)"/>
<path d="M0 0 C0.33 0 0.66 0 1 0 C1 2.31 1 4.62 1 7 C-0.98 7.99 -0.98 7.99 -3 9 C-2.30058404 5.85262818 -1.23921302 2.97411124 0 0 Z " fill="#208DB8" transform="translate(288,381)"/>
<path d="M0 0 C0.99 0.33 1.98 0.66 3 1 C0.03 4.96 0.03 4.96 -3 9 C-3.33 7.68 -3.66 6.36 -4 5 C-2.0625 2.25 -2.0625 2.25 0 0 Z " fill="#1C7993" transform="translate(237,307)"/>
<path d="M0 0 C2.97 0.495 2.97 0.495 6 1 C6.33 2.98 6.66 4.96 7 7 C5.83040013 6.02433888 4.66438823 5.044375 3.5 4.0625 C2.8503125 3.51722656 2.200625 2.97195312 1.53125 2.41015625 C1.0259375 1.94480469 0.520625 1.47945312 0 1 C0 0.67 0 0.34 0 0 Z " fill="#2283AD" transform="translate(254,171)"/>
<path d="M0 0 C0.66 0.33 1.32 0.66 2 1 C-0.97 4.96 -0.97 4.96 -4 9 C-4.33 8.01 -4.66 7.02 -5 6 C-3.59554165 3.7363436 -1.8032087 1.9791315 0 0 Z " fill="#2C81AD" transform="translate(337,166)"/>
<path d="M0 0 C0.33 1.32 0.66 2.64 1 4 C-1.97 4 -4.94 4 -8 4 C-5.33333333 2.66666667 -2.66666667 1.33333333 0 0 Z " fill="#2880B2" transform="translate(339,400)"/>
<path d="M0 0 C1.65 0 3.3 0 5 0 C5.66 1.32 6.32 2.64 7 4 C3.89448334 4 2.64738916 3.4606285 0 2 C0 1.34 0 0.68 0 0 Z " fill="#0892BC" transform="translate(265,186)"/>
<path d="M0 0 C4.7517398 0.43197635 6.92000054 1.32769295 10 5 C8.51800098 4.55090939 7.03944764 4.09043436 5.5625 3.625 C4.73878906 3.36976563 3.91507813 3.11453125 3.06640625 2.8515625 C1 2 1 2 0 0 Z " fill="#2988B5" transform="translate(240,175)"/>
<path d="" fill="#0000FF" transform="translate(0,0)"/>
</svg>
